<svg width="18" height="10" viewBox="0 0 18 10" fill="none" xmlns="http://www.w3.org/2000/svg">
<path d="M4.30458 9.82492C3.79708 9.82492 3.36569 9.64735 3.01042 9.29221C2.65514 8.93694 2.4775 8.50555 2.4775 7.99805H0.875V1.33138C0.875 1.10221 0.956597 0.906033 1.11979 0.742839C1.28299 0.579644 1.47917 0.498047 1.70833 0.498047H12.6058L17.125 4.76096V7.99805H15.7788C15.7788 8.50555 15.6012 8.93694 15.246 9.29221C14.8908 9.64735 14.4594 9.82492 13.9519 9.82492C13.4444 9.82492 13.0131 9.64735 12.6579 9.29221C12.3026 8.93694 12.125 8.50555 12.125 7.99805H6.13146C6.13146 8.50013 5.95382 8.93013 5.59854 9.28805C5.24326 9.64596 4.81194 9.82492 4.30458 9.82492ZM10.875 4.31221H15.4262L12.2531 1.33138H10.875V4.31221ZM6.29167 4.31221H10.0417V1.33138H6.29167V4.31221ZM1.70833 4.31221H5.45833V1.33138H1.70833V4.31221ZM4.30458 9.03971C4.59625 9.03971 4.84278 8.93902 5.04417 8.73763C5.24556 8.53624 5.34625 8.28971 5.34625 7.99805C5.34625 7.70638 5.24556 7.45985 5.04417 7.25846C4.84278 7.05708 4.59625 6.95638 4.30458 6.95638C4.01292 6.95638 3.76639 7.05708 3.565 7.25846C3.36361 7.45985 3.26292 7.70638 3.26292 7.99805C3.26292 8.28971 3.36361 8.53624 3.565 8.73763C3.76639 8.93902 4.01292 9.03971 4.30458 9.03971ZM13.9519 9.03971C14.2435 9.03971 14.4901 8.93902 14.6915 8.73763C14.8928 8.53624 14.9935 8.28971 14.9935 7.99805C14.9935 7.70638 14.8928 7.45985 14.6915 7.25846C14.4901 7.05708 14.2435 6.95638 13.9519 6.95638C13.6602 6.95638 13.4137 7.05708 13.2123 7.25846C13.0109 7.45985 12.9102 7.70638 12.9102 7.99805C12.9102 8.28971 13.0109 8.53624 13.2123 8.73763C13.4137 8.93902 13.6602 9.03971 13.9519 9.03971Z" fill="#007FC4"/>
</svg>
