<svg width="20" height="18" viewBox="0 0 20 18" fill="none" xmlns="http://www.w3.org/2000/svg">
<path d="M6.2617 10.6536C6.46854 10.6536 6.6422 10.5836 6.7827 10.4436C6.92304 10.3038 6.9932 10.1304 6.9932 9.9236C6.9932 9.71677 6.9232 9.5431 6.7832 9.4026C6.64337 9.26227 6.47004 9.1921 6.2632 9.1921C6.05637 9.1921 5.8827 9.2621 5.7422 9.4021C5.60187 9.54194 5.5317 9.71527 5.5317 9.9221C5.5317 10.1289 5.6017 10.3026 5.7417 10.4431C5.88154 10.5834 6.05487 10.6536 6.2617 10.6536ZM10.0117 10.6536C10.2185 10.6536 10.3922 10.5836 10.5327 10.4436C10.673 10.3038 10.7432 10.1304 10.7432 9.9236C10.7432 9.71677 10.6732 9.5431 10.5332 9.4026C10.3934 9.26227 10.22 9.1921 10.0132 9.1921C9.80637 9.1921 9.6327 9.2621 9.4922 9.4021C9.35187 9.54194 9.2817 9.71527 9.2817 9.9221C9.2817 10.1289 9.3517 10.3026 9.4917 10.4431C9.63154 10.5834 9.80487 10.6536 10.0117 10.6536ZM13.7617 10.6536C13.9685 10.6536 14.1422 10.5836 14.2827 10.4436C14.423 10.3038 14.4932 10.1304 14.4932 9.9236C14.4932 9.71677 14.4232 9.5431 14.2832 9.4026C14.1434 9.26227 13.97 9.1921 13.7632 9.1921C13.5564 9.1921 13.3827 9.2621 13.2422 9.4021C13.1019 9.54194 13.0317 9.71527 13.0317 9.9221C13.0317 10.1289 13.1017 10.3026 13.2417 10.4431C13.3815 10.5834 13.5549 10.6536 13.7617 10.6536ZM10.0135 17.9229C8.90379 17.9229 7.86404 17.7142 6.8942 17.2969C5.92437 16.8795 5.07695 16.3084 4.35195 15.5834C3.62695 14.8584 3.05579 14.0113 2.63845 13.0421C2.22112 12.0731 2.01245 11.0337 2.01245 9.92385C2.01245 8.81419 2.22112 7.77444 2.63845 6.8046C3.05579 5.83477 3.62695 4.98735 4.35195 4.26235C5.07695 3.53735 5.92404 2.96619 6.8932 2.54885C7.8622 2.13152 8.90162 1.92285 10.0115 1.92285C11.1211 1.92285 12.1609 2.13152 13.1307 2.54885C14.1005 2.96619 14.948 3.53735 15.673 4.26235C16.398 4.98735 16.9691 5.83444 17.3865 6.8036C17.8038 7.7726 18.0125 8.81202 18.0125 9.92185C18.0125 11.0315 17.8038 12.0713 17.3865 13.0411C16.9691 14.0109 16.398 14.8584 15.673 15.5834C14.948 16.3084 14.1009 16.8795 13.1317 17.2969C12.1627 17.7142 11.1233 17.9229 10.0135 17.9229ZM3.9202 0.349854L4.62795 1.05735L1.14695 4.53835L0.439453 3.8306L3.9202 0.349854ZM16.1047 0.349854L19.5855 3.8306L18.878 4.53835L15.397 1.05735L16.1047 0.349854ZM10.0125 16.9229C11.9496 16.9229 13.6006 16.2405 14.9655 14.8759C16.3301 13.511 17.0125 11.86 17.0125 9.92285C17.0125 7.98569 16.3301 6.33469 14.9655 4.96985C13.6006 3.60519 11.9496 2.92285 10.0125 2.92285C8.07529 2.92285 6.42429 3.60519 5.05945 4.96985C3.69479 6.33469 3.01245 7.98569 3.01245 9.92285C3.01245 11.86 3.69479 13.511 5.05945 14.8759C6.42429 16.2405 8.07529 16.9229 10.0125 16.9229Z" fill="#007FC4"/>
</svg>
