<svg width="16" height="15" viewBox="0 0 16 15" fill="none" xmlns="http://www.w3.org/2000/svg">
<path d="M8.00094 14.9979C7.07677 14.9979 6.21059 14.824 5.4024 14.4763C4.5942 14.1285 3.88802 13.6525 3.28385 13.0483C2.67969 12.4442 2.20372 11.738 1.85594 10.9298C1.50816 10.1216 1.33427 9.25543 1.33427 8.33126C1.33427 7.40709 1.50816 6.54091 1.85594 5.73272C2.20372 4.92452 2.67969 4.21834 3.28385 3.61418C3.88802 3.01001 4.5942 2.53404 5.4024 2.18626C6.21059 1.83848 7.07677 1.66459 8.00094 1.66459C8.9251 1.66459 9.79128 1.83848 10.5995 2.18626C11.4077 2.53404 12.1139 3.01001 12.718 3.61418C13.3222 4.21834 13.7982 4.92452 14.1459 5.73272C14.4937 6.54091 14.6676 7.40709 14.6676 8.33126C14.6676 9.25543 14.4937 10.1216 14.1459 10.9298C13.7982 11.738 13.3222 12.4442 12.718 13.0483C12.1139 13.6525 11.4077 14.1285 10.5995 14.4763C9.79128 14.824 8.9251 14.9979 8.00094 14.9979ZM10.6228 11.5427L11.2124 10.9531L8.4176 8.15813V4.16459H7.58427V8.50438L10.6228 11.5427ZM2.92406 0.35376L3.51385 0.943343L0.613021 3.84418L0.0234375 3.25438L2.92406 0.35376ZM13.0778 0.35376L15.9784 3.25438L15.3889 3.84418L12.488 0.943343L13.0778 0.35376Z" fill="#007FC4"/>
</svg>
