<svg width="9" height="9" viewBox="0 0 9 9" fill="none" xmlns="http://www.w3.org/2000/svg">
<path d="M4.68992 8.15802C4.22784 8.15802 3.79475 8.07108 3.39065 7.89719C2.98655 7.7233 2.63346 7.48531 2.33138 7.18323C2.0293 6.88115 1.79131 6.52806 1.61742 6.12396C1.44353 5.71986 1.35659 5.28677 1.35659 4.82469C1.35659 4.3626 1.44353 3.92951 1.61742 3.52542C1.79131 3.12132 2.0293 2.76823 2.33138 2.46615C2.63346 2.16406 2.98655 1.92608 3.39065 1.75219C3.79475 1.5783 4.22784 1.49135 4.68992 1.49135C5.15201 1.49135 5.58509 1.5783 5.98919 1.75219C6.39329 1.92608 6.74638 2.16406 7.04846 2.46615C7.35055 2.76823 7.58853 3.12132 7.76242 3.52542C7.93631 3.92951 8.02325 4.3626 8.02325 4.82469C8.02325 5.28677 7.93631 5.71986 7.76242 6.12396C7.58853 6.52806 7.35055 6.88115 7.04846 7.18323C6.74638 7.48531 6.39329 7.7233 5.98919 7.89719C5.58509 8.07108 5.15201 8.15802 4.68992 8.15802ZM6.00086 6.43042L6.29565 6.13563L4.89825 4.73813V2.74135H4.48159V4.91125L6.00086 6.43042ZM2.15148 0.835938L2.44638 1.13073L0.995964 2.58115L0.701172 2.28625L2.15148 0.835938ZM7.22836 0.835938L8.67867 2.28625L8.38388 2.58115L6.93346 1.13073L7.22836 0.835938ZM4.68992 7.74135C5.49707 7.74135 6.18499 7.45705 6.75367 6.88844C7.32228 6.31976 7.60659 5.63184 7.60659 4.82469C7.60659 4.01753 7.32228 3.32962 6.75367 2.76094C6.18499 2.19233 5.49707 1.90802 4.68992 1.90802C3.88277 1.90802 3.19485 2.19233 2.62617 2.76094C2.05756 3.32962 1.77326 4.01753 1.77326 4.82469C1.77326 5.63184 2.05756 6.31976 2.62617 6.88844C3.19485 7.45705 3.88277 7.74135 4.68992 7.74135Z" fill="#004576"/>
</svg>
