<svg width="9" height="9" viewBox="0 0 9 9" fill="none" xmlns="http://www.w3.org/2000/svg">
<path d="M0.439453 8.98486V2.48486H2.43945V0.484863H6.93945V4.48486H8.93945V8.98486H5.43945V6.98486H3.93945V8.98486H0.439453ZM0.939453 8.48486H2.43945V6.98486H0.939453V8.48486ZM0.939453 6.48486H2.43945V4.98486H0.939453V6.48486ZM0.939453 4.48486H2.43945V2.98486H0.939453V4.48486ZM2.93945 6.48486H4.43945V4.98486H2.93945V6.48486ZM2.93945 4.48486H4.43945V2.98486H2.93945V4.48486ZM2.93945 2.48486H4.43945V0.984863H2.93945V2.48486ZM4.93945 6.48486H6.43945V4.98486H4.93945V6.48486ZM4.93945 4.48486H6.43945V2.98486H4.93945V4.48486ZM4.93945 2.48486H6.43945V0.984863H4.93945V2.48486ZM6.93945 8.48486H8.43945V6.98486H6.93945V8.48486ZM6.93945 6.48486H8.43945V4.98486H6.93945V6.48486Z" fill="#007FC4"/>
</svg>
