<svg width="22" height="22" viewBox="0 0 22 22" fill="none" xmlns="http://www.w3.org/2000/svg">
<path d="M9.29941 14.6558V7.14415L15.1553 10.9L9.29941 14.6558ZM11.3994 21.4C9.36136 21.4 7.51879 20.876 5.87169 19.8281C4.22476 18.7801 2.91734 17.3023 1.94941 15.3948V19.3H0.899414V13.6463H6.53319V14.6963H2.78941C3.60106 16.4394 4.7712 17.8176 6.29983 18.8306C7.82845 19.8435 9.52831 20.35 11.3994 20.35C13.4793 20.35 15.3474 19.7287 17.0038 18.4862C18.6602 17.2437 19.794 15.6283 20.4053 13.64L21.4432 13.85C20.7903 16.1089 19.5383 17.9319 17.6873 19.3192C15.8364 20.7064 13.7404 21.4 11.3994 21.4ZM0.951914 9.85C1.08789 8.75835 1.3342 7.77869 1.69085 6.91104C2.04768 6.0434 2.57066 5.16131 3.25981 4.26478L4.0292 4.99375C3.4692 5.72472 3.03441 6.46007 2.72484 7.19979C2.41526 7.93952 2.1763 8.82292 2.00795 9.85H0.951914ZM5.4992 3.54396L4.77024 2.77457C5.61706 2.11237 6.51026 1.58842 7.44984 1.20272C8.38941 0.817021 9.35594 0.58042 10.3494 0.49292V1.54292C9.49734 1.63042 8.65865 1.84576 7.83335 2.18893C7.00823 2.53228 6.23018 2.98396 5.4992 3.54396ZM17.2652 3.54396C16.6286 3.01091 15.8697 2.56264 14.9886 2.19917C14.1075 1.83569 13.2611 1.61694 12.4494 1.54292V0.49292C13.4469 0.584445 14.4165 0.825421 15.3582 1.21585C16.2999 1.6061 17.1853 2.13241 18.0144 2.79478L17.2652 3.54396ZM20.7565 9.85C20.642 8.87665 20.4132 7.98983 20.07 7.18956C19.7267 6.38928 19.275 5.66408 18.715 5.01396L19.4642 4.26478C20.1401 5.06716 20.6731 5.9391 21.0634 6.8806C21.4538 7.82227 21.7015 8.81207 21.8065 9.85H20.7565Z" fill="#1C1B1F"/>
</svg>
