<svg width="17" height="17" viewBox="0 0 17 17" fill="none" xmlns="http://www.w3.org/2000/svg">
<path d="M2.01367 2.96777H6.01367C6.72092 2.96777 7.39919 3.24872 7.89929 3.74882C8.39939 4.24892 8.68034 4.9272 8.68034 5.63444V14.9678C8.68034 14.4373 8.46962 13.9286 8.09455 13.5536C7.71948 13.1785 7.21077 12.9678 6.68034 12.9678H2.01367V2.96777Z" stroke="#666666" stroke-linecap="round" stroke-linejoin="round"/>
<path d="M15.3464 2.96777H11.3464C10.6391 2.96777 9.96083 3.24872 9.46074 3.74882C8.96064 4.24892 8.67969 4.9272 8.67969 5.63444V14.9678C8.67969 14.4373 8.8904 13.9286 9.26547 13.5536C9.64055 13.1785 10.1493 12.9678 10.6797 12.9678H15.3464V2.96777Z" stroke="#666666" stroke-linecap="round" stroke-linejoin="round"/>
</svg>
