<svg width="17" height="17" viewBox="0 0 17 17" fill="none" xmlns="http://www.w3.org/2000/svg">
<path d="M13.668 5.05908H3.0013C2.26492 5.05908 1.66797 5.65604 1.66797 6.39242V13.0591C1.66797 13.7955 2.26492 14.3924 3.0013 14.3924H13.668C14.4043 14.3924 15.0013 13.7955 15.0013 13.0591V6.39242C15.0013 5.65604 14.4043 5.05908 13.668 5.05908Z" stroke="#666666" stroke-linecap="round" stroke-linejoin="round"/>
<path d="M11.334 6.39258V2.83702C11.334 2.71915 11.1759 2.6061 10.8946 2.52275C10.6133 2.4394 10.2318 2.39258 9.83398 2.39258H6.83398C6.43616 2.39258 6.05463 2.4394 5.77332 2.52275C5.49202 2.6061 5.33398 2.71915 5.33398 2.83702V6.39258" stroke="#666666" stroke-linecap="round" stroke-linejoin="round"/>
</svg>
