<svg width="14" height="14" viewBox="0 0 14 14" fill="none" xmlns="http://www.w3.org/2000/svg">
<path d="M13.166 7.05926C13.1683 7.93918 12.9627 8.80719 12.566 9.5926C12.0956 10.5338 11.3725 11.3254 10.4776 11.8788C9.58278 12.4322 8.55151 12.7255 7.49935 12.7259C6.61944 12.7282 5.75143 12.5226 4.96602 12.1259L1.16602 13.3926L2.43268 9.5926C2.03597 8.80719 1.83039 7.93918 1.83268 7.05926C1.83309 6.0071 2.12642 4.97583 2.67983 4.08096C3.23323 3.1861 4.02485 2.46298 4.96602 1.9926C5.75143 1.59588 6.61944 1.3903 7.49935 1.3926H7.83268C9.22225 1.46926 10.5347 2.05577 11.5188 3.03984C12.5028 4.0239 13.0894 5.33637 13.166 6.72593V7.05926Z" stroke="#666666" stroke-linecap="round" stroke-linejoin="round"/>
</svg>
