<svg width="42" height="43" viewBox="0 0 42 43" fill="none" xmlns="http://www.w3.org/2000/svg">
<rect y="0.922852" width="42" height="42" rx="21" fill="#F5F7FA"/>
<circle cx="21" cy="21.9229" r="18" fill="#007FC4" fill-opacity="0.3"/>
<mask id="mask0_766_2617" style="mask-type:alpha" maskUnits="userSpaceOnUse" x="11" y="12" width="19" height="19">
<rect x="11.6797" y="12.9229" width="18" height="18" fill="#D9D9D9"/>
</mask>
<g mask="url(#mask0_766_2617)">
<path d="M15.6605 29.0479C15.2816 29.0479 14.9609 28.9166 14.6984 28.6541C14.4359 28.3916 14.3047 28.0709 14.3047 27.6921V17.6537C14.3047 17.2748 14.4359 16.9541 14.6984 16.6916C14.9609 16.4291 15.2816 16.2979 15.6605 16.2979H16.6989V14.7114H17.8528V16.2979H23.5355V14.7114H24.6605V16.2979H25.6989C26.0778 16.2979 26.3984 16.4291 26.6609 16.6916C26.9234 16.9541 27.0547 17.2748 27.0547 17.6537V27.6921C27.0547 28.0709 26.9234 28.3916 26.6609 28.6541C26.3984 28.9166 26.0778 29.0479 25.6989 29.0479H15.6605ZM15.6605 27.9229H25.6989C25.7566 27.9229 25.8095 27.8988 25.8575 27.8507C25.9056 27.8027 25.9297 27.7498 25.9297 27.6921V20.6537H15.4297V27.6921C15.4297 27.7498 15.4538 27.8027 15.5019 27.8507C15.5499 27.8988 15.6027 27.9229 15.6605 27.9229ZM15.4297 19.5287H25.9297V17.6537C25.9297 17.5959 25.9056 17.5431 25.8575 17.495C25.8095 17.4469 25.7566 17.4229 25.6989 17.4229H15.6605C15.6027 17.4229 15.5499 17.4469 15.5019 17.495C15.4538 17.5431 15.4297 17.5959 15.4297 17.6537V19.5287Z" fill="#007FC4"/>
</g>
</svg>
