<svg width="8" height="9" viewBox="0 0 8 9" fill="none" xmlns="http://www.w3.org/2000/svg">
<path d="M1.02859 8.15816C0.836788 8.15816 0.676649 8.09392 0.548177 7.96545C0.419705 7.83698 0.355469 7.67684 0.355469 7.48503V2.16462C0.355469 1.97281 0.419705 1.81267 0.548177 1.6842C0.676649 1.55573 0.836788 1.49149 1.02859 1.49149H1.76568V0.562012H2.21443V1.49149H5.19526V0.562012H5.61193V1.49149H6.34901C6.54082 1.49149 6.70095 1.55573 6.82943 1.6842C6.9579 1.81267 7.02214 1.97281 7.02214 2.16462V7.48503C7.02214 7.67684 6.9579 7.83698 6.82943 7.96545C6.70095 8.09392 6.54082 8.15816 6.34901 8.15816H1.02859ZM1.02859 7.74149H6.34901C6.41318 7.74149 6.47196 7.71479 6.52536 7.66139C6.57877 7.60798 6.60547 7.5492 6.60547 7.48503V3.83128H0.772135V7.48503C0.772135 7.5492 0.798837 7.60798 0.85224 7.66139C0.905642 7.71479 0.964427 7.74149 1.02859 7.74149ZM0.772135 3.41451H6.60547V2.16462C6.60547 2.10045 6.57877 2.04166 6.52536 1.98826C6.47196 1.93486 6.41318 1.90816 6.34901 1.90816H1.02859C0.964427 1.90816 0.905642 1.93486 0.85224 1.98826C0.798837 2.04166 0.772135 2.10045 0.772135 2.16462V3.41451ZM3.6888 5.30555C3.60283 5.30555 3.5279 5.27364 3.46401 5.20982C3.40019 5.14601 3.36828 5.07107 3.36828 4.98503C3.36828 4.89906 3.40019 4.82416 3.46401 4.76034C3.5279 4.69653 3.60283 4.66462 3.6888 4.66462C3.77477 4.66462 3.8497 4.69653 3.91359 4.76034C3.97741 4.82416 4.00932 4.89906 4.00932 4.98503C4.00932 5.07107 3.97741 5.14601 3.91359 5.20982C3.8497 5.27364 3.77477 5.30555 3.6888 5.30555ZM2.02214 5.30555C1.93616 5.30555 1.86123 5.27364 1.79734 5.20982C1.73352 5.14601 1.70161 5.07107 1.70161 4.98503C1.70161 4.89906 1.73352 4.82416 1.79734 4.76034C1.86123 4.69653 1.93616 4.66462 2.02214 4.66462C2.10811 4.66462 2.18304 4.69653 2.24693 4.76034C2.31075 4.82416 2.34266 4.89906 2.34266 4.98503C2.34266 5.07107 2.31075 5.14601 2.24693 5.20982C2.18304 5.27364 2.10811 5.30555 2.02214 5.30555ZM5.35547 5.30555C5.2695 5.30555 5.19457 5.27364 5.13068 5.20982C5.06686 5.14601 5.03495 5.07107 5.03495 4.98503C5.03495 4.89906 5.06686 4.82416 5.13068 4.76034C5.19457 4.69653 5.2695 4.66462 5.35547 4.66462C5.44144 4.66462 5.51637 4.69653 5.58026 4.76034C5.64408 4.82416 5.67599 4.89906 5.67599 4.98503C5.67599 5.07107 5.64408 5.14601 5.58026 5.20982C5.51637 5.27364 5.44144 5.30555 5.35547 5.30555ZM3.6888 6.90816C3.60283 6.90816 3.5279 6.87625 3.46401 6.81243C3.40019 6.74861 3.36828 6.67368 3.36828 6.58764C3.36828 6.50166 3.40019 6.42673 3.46401 6.36285C3.5279 6.29903 3.60283 6.26712 3.6888 6.26712C3.77477 6.26712 3.8497 6.29903 3.91359 6.36285C3.97741 6.42673 4.00932 6.50166 4.00932 6.58764C4.00932 6.67368 3.97741 6.74861 3.91359 6.81243C3.8497 6.87625 3.77477 6.90816 3.6888 6.90816ZM2.02214 6.90816C1.93616 6.90816 1.86123 6.87625 1.79734 6.81243C1.73352 6.74861 1.70161 6.67368 1.70161 6.58764C1.70161 6.50166 1.73352 6.42673 1.79734 6.36285C1.86123 6.29903 1.93616 6.26712 2.02214 6.26712C2.10811 6.26712 2.18304 6.29903 2.24693 6.36285C2.31075 6.42673 2.34266 6.50166 2.34266 6.58764C2.34266 6.67368 2.31075 6.74861 2.24693 6.81243C2.18304 6.87625 2.10811 6.90816 2.02214 6.90816ZM5.35547 6.90816C5.2695 6.90816 5.19457 6.87625 5.13068 6.81243C5.06686 6.74861 5.03495 6.67368 5.03495 6.58764C5.03495 6.50166 5.06686 6.42673 5.13068 6.36285C5.19457 6.29903 5.2695 6.26712 5.35547 6.26712C5.44144 6.26712 5.51637 6.29903 5.58026 6.36285C5.64408 6.42673 5.67599 6.50166 5.67599 6.58764C5.67599 6.67368 5.64408 6.74861 5.58026 6.81243C5.51637 6.87625 5.44144 6.90816 5.35547 6.90816Z" fill="#004576"/>
</svg>
