<svg width="12" height="13" viewBox="0 0 12 13" fill="none" xmlns="http://www.w3.org/2000/svg">
<path d="M1.92661 13.0034C1.61972 13.0034 1.3635 12.9007 1.15794 12.6951C0.952387 12.4896 0.849609 12.2333 0.849609 11.9264V3.41378C0.849609 3.10689 0.952387 2.85066 1.15794 2.64511C1.3635 2.43955 1.61972 2.33678 1.92661 2.33678H3.10594V0.849609H3.82394V2.33678H8.59328V0.849609H9.25994V2.33678H10.4393C10.7462 2.33678 11.0024 2.43955 11.2079 2.64511C11.4135 2.85066 11.5163 3.10689 11.5163 3.41378V11.9264C11.5163 12.2333 11.4135 12.4896 11.2079 12.6951C11.0024 12.9007 10.7462 13.0034 10.4393 13.0034H1.92661ZM1.92661 12.3368H10.4393C10.5419 12.3368 10.636 12.2941 10.7214 12.2086C10.8069 12.1232 10.8496 12.0291 10.8496 11.9264V6.08044H1.51628V11.9264C1.51628 12.0291 1.559 12.1232 1.64444 12.2086C1.72989 12.2941 1.82394 12.3368 1.92661 12.3368ZM1.51628 5.41361H10.8496V3.41378C10.8496 3.31111 10.8069 3.21705 10.7214 3.13161C10.636 3.04616 10.5419 3.00344 10.4393 3.00344H1.92661C1.82394 3.00344 1.72989 3.04616 1.64444 3.13161C1.559 3.21705 1.51628 3.31111 1.51628 3.41378V5.41361ZM6.18294 8.43928C6.04539 8.43928 5.9255 8.38822 5.82328 8.28611C5.72117 8.184 5.67011 8.06411 5.67011 7.92644C5.67011 7.78889 5.72117 7.66905 5.82328 7.56694C5.9255 7.46483 6.04539 7.41378 6.18294 7.41378C6.3205 7.41378 6.44039 7.46483 6.54261 7.56694C6.64472 7.66905 6.69578 7.78889 6.69578 7.92644C6.69578 8.06411 6.64472 8.184 6.54261 8.28611C6.44039 8.38822 6.3205 8.43928 6.18294 8.43928ZM3.51628 8.43928C3.37872 8.43928 3.25883 8.38822 3.15661 8.28611C3.0545 8.184 3.00344 8.06411 3.00344 7.92644C3.00344 7.78889 3.0545 7.66905 3.15661 7.56694C3.25883 7.46483 3.37872 7.41378 3.51628 7.41378C3.65383 7.41378 3.77372 7.46483 3.87594 7.56694C3.97805 7.66905 4.02911 7.78889 4.02911 7.92644C4.02911 8.06411 3.97805 8.184 3.87594 8.28611C3.77372 8.38822 3.65383 8.43928 3.51628 8.43928ZM8.84961 8.43928C8.71205 8.43928 8.59216 8.38822 8.48994 8.28611C8.38783 8.184 8.33678 8.06411 8.33678 7.92644C8.33678 7.78889 8.38783 7.66905 8.48994 7.56694C8.59216 7.46483 8.71205 7.41378 8.84961 7.41378C8.98717 7.41378 9.10705 7.46483 9.20928 7.56694C9.31139 7.66905 9.36244 7.78889 9.36244 7.92644C9.36244 8.06411 9.31139 8.184 9.20928 8.28611C9.10705 8.38822 8.98717 8.43928 8.84961 8.43928ZM6.18294 11.0034C6.04539 11.0034 5.9255 10.9524 5.82328 10.8503C5.72117 10.7482 5.67011 10.6283 5.67011 10.4906C5.67011 10.3531 5.72117 10.2332 5.82328 10.1309C5.9255 10.0288 6.04539 9.97777 6.18294 9.97777C6.3205 9.97777 6.44039 10.0288 6.54261 10.1309C6.64472 10.2332 6.69578 10.3531 6.69578 10.4906C6.69578 10.6283 6.64472 10.7482 6.54261 10.8503C6.44039 10.9524 6.3205 11.0034 6.18294 11.0034ZM3.51628 11.0034C3.37872 11.0034 3.25883 10.9524 3.15661 10.8503C3.0545 10.7482 3.00344 10.6283 3.00344 10.4906C3.00344 10.3531 3.0545 10.2332 3.15661 10.1309C3.25883 10.0288 3.37872 9.97777 3.51628 9.97777C3.65383 9.97777 3.77372 10.0288 3.87594 10.1309C3.97805 10.2332 4.02911 10.3531 4.02911 10.4906C4.02911 10.6283 3.97805 10.7482 3.87594 10.8503C3.77372 10.9524 3.65383 11.0034 3.51628 11.0034ZM8.84961 11.0034C8.71205 11.0034 8.59216 10.9524 8.48994 10.8503C8.38783 10.7482 8.33678 10.6283 8.33678 10.4906C8.33678 10.3531 8.38783 10.2332 8.48994 10.1309C8.59216 10.0288 8.71205 9.97777 8.84961 9.97777C8.98717 9.97777 9.10705 10.0288 9.20928 10.1309C9.31139 10.2332 9.36244 10.3531 9.36244 10.4906C9.36244 10.6283 9.31139 10.7482 9.20928 10.8503C9.10705 10.9524 8.98717 11.0034 8.84961 11.0034Z" fill="#007FC4"/>
</svg>
