<svg width="20" height="22" viewBox="0 0 20 22" fill="none" xmlns="http://www.w3.org/2000/svg">
<path d="M1.05 8.09601H15.75V4.94628C15.75 4.78458 15.6827 4.63644 15.5481 4.50186C15.4136 4.36729 15.2654 4.3 15.1037 4.3H1.69627C1.53457 4.3 1.38644 4.36729 1.25186 4.50186C1.11729 4.63644 1.05 4.78458 1.05 4.94628V8.09601ZM1.69627 20.05C1.21292 20.05 0.809375 19.8881 0.485625 19.5644C0.161875 19.2406 0 18.8371 0 18.3537V4.94628C0 4.46293 0.161875 4.05938 0.485625 3.73563C0.809375 3.41188 1.21292 3.25 1.69627 3.25H3.55373V0.907715H4.68458V3.25H12.1963V0.907715H13.2463V3.25H15.1037C15.5871 3.25 15.9906 3.41188 16.3144 3.73563C16.6381 4.05938 16.8 4.46293 16.8 4.94628V10.4606C16.629 10.3974 16.456 10.3504 16.281 10.3194C16.106 10.2884 15.929 10.2602 15.75 10.2346V9.14628H1.05V18.3537C1.05 18.5154 1.11729 18.6636 1.25186 18.7981C1.38644 18.9327 1.53457 19 1.69627 19H8.73521C8.79034 19.1965 8.86069 19.379 8.94626 19.5473C9.03166 19.7155 9.12083 19.8831 9.21375 20.05H1.69627ZM15.1037 21.1C13.934 21.1 12.9416 20.6924 12.1265 19.8773C11.3113 19.0623 10.9037 18.0699 10.9037 16.9C10.9037 15.7301 11.3113 14.7377 12.1265 13.9227C12.9416 13.1076 13.934 12.7 15.1037 12.7C16.2736 12.7 17.2661 13.1076 18.0813 13.9227C18.8962 14.7377 19.3037 15.7301 19.3037 16.9C19.3037 18.0699 18.8962 19.0623 18.0813 19.8773C17.2661 20.6924 16.2736 21.1 15.1037 21.1ZM16.8425 19.2121L17.4158 18.6385L15.5077 16.7304V13.8713H14.7V17.0696L16.8425 19.2121Z" fill="#1C1B1F"/>
</svg>
