<svg width="154" height="154" viewBox="0 0 154 154" fill="none" xmlns="http://www.w3.org/2000/svg">
<g opacity="0.1">
<mask id="mask0_875_4158" style="mask-type:alpha" maskUnits="userSpaceOnUse" x="0" y="0" width="154" height="154">
<rect width="154" height="154" fill="#D9D9D9"/>
</mask>
<g mask="url(#mask0_875_4158)">
<path d="M36.0331 134.75C33.0793 134.75 30.6132 133.761 28.6347 131.782C26.6562 129.804 25.667 127.338 25.667 124.384V42.4494C25.667 39.4956 26.6562 37.0294 28.6347 35.051C30.6132 33.0725 33.0793 32.0833 36.0331 32.0833H47.3842V17.7693H54.2949V32.0833H100.2V17.7693H106.616V32.0833H117.968C120.921 32.0833 123.387 33.0725 125.366 35.051C127.344 37.0294 128.334 39.4956 128.334 42.4494V72.9398C128.334 73.8531 128.027 74.6161 127.414 75.2289C126.802 75.8417 126.039 76.1481 125.125 76.1481C124.212 76.1481 123.449 75.8417 122.836 75.2289C122.223 74.6161 121.917 73.8531 121.917 72.9398V68.1161H32.0837V124.384C32.0837 125.372 32.4949 126.277 33.3173 127.1C34.1397 127.922 35.0449 128.333 36.0331 128.333H77.3212C78.2345 128.333 78.9975 128.64 79.6103 129.252C80.2231 129.865 80.5295 130.628 80.5295 131.542C80.5295 132.455 80.2231 133.218 79.6103 133.831C78.9975 134.444 78.2345 134.75 77.3212 134.75H36.0331ZM117.968 141.167C110.819 141.167 104.755 138.676 99.7731 133.694C94.7916 128.714 92.3009 122.649 92.3009 115.5C92.3009 108.351 94.7916 102.286 99.7731 97.3055C104.755 92.324 110.819 89.8333 117.968 89.8333C125.117 89.8333 131.182 92.324 136.164 97.3055C141.144 102.286 143.634 108.351 143.634 115.5C143.634 122.649 141.144 128.714 136.164 133.694C131.182 138.676 125.117 141.167 117.968 141.167ZM128.594 129.629L132.097 126.124L120.436 114.464V96.9911H115.5V116.536L128.594 129.629Z" fill="#007FC4"/>
</g>
</g>
</svg>
