<svg width="12" height="11" viewBox="0 0 12 11" fill="none" xmlns="http://www.w3.org/2000/svg">
<path d="M10.6198 10.8317C9.49596 10.8317 8.34385 10.5503 7.16351 9.98754C5.98318 9.42465 4.88657 8.63465 3.87368 7.61754C2.8609 6.60054 2.07307 5.50398 1.51018 4.32787C0.947404 3.15176 0.666016 2.00176 0.666016 0.877873C0.666016 0.674206 0.732682 0.504483 0.866016 0.368705C0.999349 0.232927 1.16602 0.165039 1.36602 0.165039H3.01468C3.1959 0.165039 3.35402 0.222095 3.48902 0.336206C3.62413 0.450317 3.71563 0.596706 3.76352 0.775372L4.09418 2.36504C4.12496 2.55137 4.1194 2.71421 4.07752 2.85354C4.03563 2.99287 3.96168 3.10698 3.85568 3.19587L2.39302 4.55987C2.66646 5.05643 2.96879 5.51776 3.30002 5.94387C3.63124 6.36998 3.98446 6.77359 4.35968 7.15471C4.74679 7.54193 5.16346 7.90198 5.60968 8.23487C6.05579 8.56776 6.54552 8.88209 7.07885 9.17787L8.50452 7.72654C8.61307 7.60943 8.73507 7.53232 8.87051 7.4952C9.00596 7.45798 9.15574 7.45048 9.31985 7.47271L10.7223 7.75987C10.9036 7.80432 11.0506 7.89559 11.1635 8.03371C11.2763 8.17171 11.3327 8.33004 11.3327 8.50871V10.1317C11.3327 10.3317 11.2648 10.4984 11.129 10.6317C10.9932 10.765 10.8235 10.8317 10.6198 10.8317ZM2.08018 3.93421L3.35968 2.75737C3.40235 2.72315 3.43013 2.67615 3.44302 2.61637C3.45579 2.55648 3.45363 2.50093 3.43652 2.44971L3.14035 1.03687C3.12324 0.968428 3.09335 0.91715 3.05068 0.883039C3.0079 0.848817 2.95235 0.831706 2.88402 0.831706H1.51602C1.46468 0.831706 1.42196 0.848817 1.38785 0.883039C1.35363 0.91715 1.33652 0.959873 1.33652 1.01121C1.34929 1.46676 1.42068 1.94237 1.55068 2.43804C1.68057 2.93382 1.85707 3.43254 2.08018 3.93421ZM7.71352 9.4907C8.16385 9.71382 8.64396 9.87876 9.15385 9.98554C9.66363 10.0924 10.1078 10.1497 10.4865 10.1574C10.5378 10.1574 10.5806 10.1403 10.6147 10.106C10.6489 10.0718 10.666 10.0291 10.666 9.97787V8.63937C10.666 8.57104 10.6489 8.51548 10.6147 8.4727C10.5806 8.43004 10.5293 8.40015 10.4608 8.38304L9.22752 8.13037C9.17629 8.11326 9.13146 8.11115 9.09301 8.12404C9.05446 8.13682 9.01385 8.16459 8.97118 8.20737L7.71352 9.4907Z" fill="#666666"/>
</svg>
