<svg width="43" height="43" viewBox="0 0 43 43" fill="none" xmlns="http://www.w3.org/2000/svg">
<rect x="0.679688" y="0.922852" width="42" height="42" rx="21" fill="#F5F7FA"/>
<circle cx="21.6797" cy="21.9229" r="18" fill="#40C949" fill-opacity="0.3"/>
<mask id="mask0_766_2607" style="mask-type:alpha" maskUnits="userSpaceOnUse" x="12" y="12" width="19" height="19">
<rect x="12.6797" y="12.9229" width="18" height="18" fill="#D9D9D9"/>
</mask>
<g mask="url(#mask0_766_2607)">
<path d="M27.2599 28.2979C25.8465 28.2979 24.4266 27.9692 23.0001 27.312C21.5737 26.6547 20.2631 25.7276 19.0684 24.5306C17.8738 23.3335 16.9478 22.0229 16.2906 20.5987C15.6333 19.1747 15.3047 17.756 15.3047 16.3427C15.3047 16.1155 15.3797 15.9263 15.5297 15.7749C15.6797 15.6235 15.8672 15.5479 16.0922 15.5479H18.5383C18.7277 15.5479 18.8948 15.6097 19.0395 15.7333C19.1843 15.8568 19.2763 16.0094 19.3157 16.1912L19.7456 18.3979C19.7754 18.6026 19.7691 18.7785 19.7269 18.9257C19.6845 19.0728 19.6085 19.1964 19.4989 19.2964L17.7667 20.9825C18.0455 21.493 18.364 21.976 18.7222 22.4314C19.0804 22.8866 19.4681 23.3214 19.8855 23.7358C20.297 24.1474 20.7345 24.5297 21.198 24.8825C21.6615 25.2354 22.162 25.5638 22.6995 25.8677L24.3825 24.17C24.4999 24.0479 24.642 23.9623 24.8089 23.9132C24.9756 23.8642 25.1489 23.8522 25.3288 23.8772L27.4114 24.3013C27.6007 24.3513 27.7553 24.4479 27.8751 24.5912C27.9948 24.7344 28.0547 24.8969 28.0547 25.0787V27.5104C28.0547 27.7354 27.979 27.9229 27.8276 28.0729C27.6763 28.2229 27.487 28.2979 27.2599 28.2979ZM17.2344 19.9181L18.573 18.6373C18.597 18.618 18.6126 18.5916 18.6199 18.558C18.6271 18.5244 18.6259 18.4931 18.6163 18.4642L18.2903 16.7882C18.2806 16.7498 18.2638 16.721 18.2398 16.7017C18.2158 16.6825 18.1846 16.6729 18.1461 16.6729H16.5422C16.5133 16.6729 16.4892 16.6825 16.47 16.7017C16.4509 16.721 16.4413 16.745 16.4413 16.7739C16.4797 17.2864 16.5636 17.807 16.6929 18.3358C16.8222 18.8647 17.0027 19.3921 17.2344 19.9181ZM23.7594 26.3998C24.2566 26.6315 24.7751 26.8087 25.3149 26.9314C25.8549 27.0539 26.3595 27.1267 26.8286 27.1498C26.8575 27.1498 26.8816 27.1402 26.9008 27.1209C26.9201 27.1017 26.9297 27.0776 26.9297 27.0487V25.4709C26.9297 25.4324 26.9201 25.4012 26.9008 25.3772C26.8816 25.3532 26.8527 25.3364 26.8144 25.3267L25.2394 25.0065C25.2105 24.9969 25.1853 24.9957 25.1636 25.0029C25.142 25.0102 25.1191 25.0258 25.095 25.0498L23.7594 26.3998Z" fill="#40C949"/>
</g>
</svg>
