<svg width="10" height="10" viewBox="0 0 10 10" fill="none" xmlns="http://www.w3.org/2000/svg">
<path d="M9.225 9.50485L7.5 7.77985V9.2481H7V6.9231H9.325V7.4231H7.84425L9.56925 9.1481L9.225 9.50485ZM5 9.4231C4.3775 9.4231 3.7925 9.30501 3.245 9.06885C2.6975 8.83268 2.22125 8.51218 1.81625 8.10735C1.41125 7.70251 1.09063 7.22643 0.854375 6.6791C0.618125 6.13185 0.5 5.54705 0.5 4.92472C0.5 4.30247 0.618083 3.71743 0.85425 3.1696C1.09042 2.62185 1.41092 2.14535 1.81575 1.7401C2.22058 1.33485 2.69667 1.01405 3.244 0.777721C3.79125 0.541304 4.37604 0.423096 4.99837 0.423096C5.62063 0.423096 6.20567 0.54122 6.7535 0.77747C7.30125 1.01372 7.77775 1.33435 8.183 1.73935C8.58825 2.14435 8.90904 2.6206 9.14538 3.1681C9.38179 3.7156 9.5 4.3006 9.5 4.9231C9.5 5.05768 9.49408 5.1923 9.48225 5.32697C9.47033 5.46155 9.45254 5.59618 9.42887 5.73085H8.9135C8.94233 5.59618 8.96396 5.46155 8.97838 5.32697C8.99279 5.1923 9 5.05768 9 4.9231C9 4.72651 8.98637 4.52993 8.95912 4.33335C8.93187 4.13676 8.88779 3.9423 8.82688 3.74997H6.80963C6.84746 3.9423 6.87421 4.13676 6.88987 4.33335C6.90562 4.52993 6.9135 4.72651 6.9135 4.9231C6.9135 5.05768 6.90963 5.1923 6.90188 5.32697C6.89421 5.46155 6.88267 5.59618 6.86725 5.73085H6.36725C6.38267 5.59618 6.39421 5.46155 6.40188 5.32697C6.40963 5.1923 6.4135 5.05768 6.4135 4.9231C6.4135 4.72651 6.40562 4.52993 6.38987 4.33335C6.37421 4.13676 6.34746 3.9423 6.30963 3.74997H3.69038C3.65254 3.9423 3.62579 4.13701 3.61013 4.3341C3.59438 4.53126 3.5865 4.72839 3.5865 4.92547C3.5865 5.12264 3.59438 5.31897 3.61013 5.51447C3.62579 5.70997 3.65254 5.90389 3.69038 6.09622H5.69225V6.59622H3.80962C3.93112 7.02455 4.08813 7.43547 4.28063 7.82897C4.47304 8.22247 4.71283 8.58847 5 8.92697C5.13458 8.92697 5.26921 8.91976 5.40387 8.90535C5.53846 8.89093 5.67308 8.87539 5.80775 8.85872V9.35485C5.67308 9.37151 5.53846 9.38705 5.40387 9.40147C5.26921 9.41589 5.13458 9.4231 5 9.4231ZM1.17313 6.09622H3.19038C3.15254 5.90389 3.12579 5.70918 3.11013 5.5121C3.09438 5.31493 3.0865 5.1178 3.0865 4.92072C3.0865 4.72355 3.09438 4.52722 3.11013 4.33172C3.12579 4.13622 3.15254 3.9423 3.19038 3.74997H1.17313C1.11221 3.9423 1.06813 4.13701 1.04088 4.3341C1.01363 4.53126 1 4.72839 1 4.92547C1 5.12264 1.01363 5.31897 1.04088 5.51447C1.06813 5.70997 1.11221 5.90389 1.17313 6.09622ZM1.37687 3.24997H3.28963C3.38696 2.83272 3.52229 2.43289 3.69563 2.05047C3.86904 1.66814 4.09167 1.30964 4.3635 0.974971C3.7 1.07372 3.10642 1.32485 2.58275 1.72835C2.059 2.13193 1.65704 2.63914 1.37687 3.24997ZM4.3635 8.87122C4.11092 8.53014 3.89633 8.16843 3.71975 7.7861C3.54308 7.40368 3.40125 7.00705 3.29425 6.59622H1.37687C1.65704 7.20064 2.06058 7.70464 2.5875 8.10822C3.11442 8.51172 3.70642 8.76605 4.3635 8.87122ZM3.80962 3.24997H6.19037C6.07754 2.82114 5.92008 2.41351 5.718 2.0271C5.51592 1.64068 5.27658 1.27139 5 0.919221C4.71925 1.25772 4.47888 1.6236 4.27888 2.01685C4.07888 2.4101 3.92246 2.82114 3.80962 3.24997ZM6.70575 3.24997H8.62313C8.34296 2.63914 7.941 2.13035 7.41725 1.7236C6.89358 1.31685 6.3 1.0673 5.6365 0.974971C5.88908 1.31605 6.09888 1.67939 6.26588 2.06497C6.43288 2.45055 6.5795 2.84555 6.70575 3.24997Z" fill="#666666"/>
</svg>
