<svg width="18" height="18" viewBox="0 0 18 18" fill="none" xmlns="http://www.w3.org/2000/svg">
<path d="M0 17.077V1.6155C0 1.15517 0.154167 0.770833 0.4625 0.4625C0.770833 0.154167 1.15517 0 1.6155 0H16.3845C16.8448 0 17.2292 0.154167 17.5375 0.4625C17.8458 0.770833 18 1.15517 18 1.6155V12.3845C18 12.8448 17.8458 13.2292 17.5375 13.5375C17.2292 13.8458 16.8448 14 16.3845 14H3.077L0 17.077ZM2.65 13H16.3845C16.5385 13 16.6796 12.9359 16.8078 12.8078C16.9359 12.6796 17 12.5385 17 12.3845V1.6155C17 1.4615 16.9359 1.32042 16.8078 1.19225C16.6796 1.06408 16.5385 1 16.3845 1H1.6155C1.4615 1 1.32042 1.06408 1.19225 1.19225C1.06408 1.32042 1 1.4615 1 1.6155V14.6443L2.65 13Z" fill="white"/>
</svg>
