<svg width="26" height="22" viewBox="0 0 26 22" fill="none" xmlns="http://www.w3.org/2000/svg">
<path d="M0.589844 21.846V19.846H25.4105V21.846H0.589844ZM5.41051 17.1793C4.73695 17.1793 4.16684 16.946 3.70018 16.4793C3.23351 16.0127 3.00018 15.4426 3.00018 14.769V6C3.00018 5.32644 3.23351 4.75633 3.70018 4.28967C4.16684 3.823 4.73695 3.58967 5.41051 3.58967H9.41051C9.41051 2.59833 9.76095 1.75222 10.4618 1.05133C11.1627 0.350444 12.0088 0 13.0002 0C13.9915 0 14.8376 0.350444 15.5385 1.05133C16.2394 1.75222 16.5898 2.59833 16.5898 3.58967H20.5898C21.2634 3.58967 21.8335 3.823 22.3002 4.28967C22.7668 4.75633 23.0002 5.32644 23.0002 6V14.769C23.0002 15.4426 22.7668 16.0127 22.3002 16.4793C21.8335 16.946 21.2634 17.1793 20.5898 17.1793H5.41051ZM19.4618 15.1793H20.5898C20.7096 15.1793 20.808 15.1409 20.8848 15.064C20.9617 14.9871 21.0002 14.8888 21.0002 14.769V6C21.0002 5.88022 20.9617 5.78189 20.8848 5.705C20.808 5.62811 20.7096 5.58967 20.5898 5.58967H19.4618V15.1793ZM11.0002 3.58967H15.0002C15.0002 3.01189 14.8113 2.53411 14.4335 2.15633C14.0557 1.77856 13.578 1.58967 13.0002 1.58967C12.4224 1.58967 11.9446 1.77856 11.5668 2.15633C11.1891 2.53411 11.0002 3.01189 11.0002 3.58967ZM6.53851 15.1793V5.58967H5.41051C5.29073 5.58967 5.1924 5.62811 5.11551 5.705C5.03862 5.78189 5.00018 5.88022 5.00018 6V14.769C5.00018 14.8888 5.03862 14.9871 5.11551 15.064C5.1924 15.1409 5.29073 15.1793 5.41051 15.1793H6.53851ZM8.12851 5.58967V15.1793H17.8718V5.58967H8.12851Z" fill="#004576"/>
</svg>
