<svg width="26" height="22" viewBox="0 0 26 22" fill="none" xmlns="http://www.w3.org/2000/svg">
<path d="M8.12851 17.1792V3.58954H9.41051C9.41051 2.59821 9.76095 1.7521 10.4618 1.05121C11.1627 0.350322 12.0088 -0.00012207 13.0002 -0.00012207C13.9915 -0.00012207 14.8376 0.350322 15.5385 1.05121C16.2394 1.7521 16.5898 2.59821 16.5898 3.58954H17.8718V17.1792H8.12851ZM11.0002 3.58954H15.0002C15.0002 3.01177 14.8113 2.53399 14.4335 2.15621C14.0557 1.77843 13.578 1.58954 13.0002 1.58954C12.4224 1.58954 11.9446 1.77843 11.5668 2.15621C11.1891 2.53399 11.0002 3.01177 11.0002 3.58954ZM19.4618 17.1792V3.58954H20.5898C21.2634 3.58954 21.8335 3.82288 22.3002 4.28955C22.7668 4.75621 23.0002 5.32632 23.0002 5.99988V14.7689C23.0002 15.4424 22.7668 16.0125 22.3002 16.4792C21.8335 16.9459 21.2634 17.1792 20.5898 17.1792H19.4618ZM5.41051 17.1792C4.73695 17.1792 4.16684 16.9459 3.70018 16.4792C3.23351 16.0125 3.00018 15.4424 3.00018 14.7689V5.99988C3.00018 5.32632 3.23351 4.75621 3.70018 4.28955C4.16684 3.82288 4.73695 3.58954 5.41051 3.58954H6.53851V17.1792H5.41051ZM0.589844 21.8459V19.8459H25.4105V21.8459H0.589844Z" fill="#666666"/>
</svg>
