<svg width="12" height="10" viewBox="0 0 12 10" fill="none" xmlns="http://www.w3.org/2000/svg">
<path d="M0.439453 9.92739V9.26055H11.9268V9.92739H0.439453ZM2.59345 7.92722C2.28656 7.92722 2.03034 7.82444 1.82479 7.61889C1.61923 7.41333 1.51645 7.15717 1.51645 6.85039V2.74789C1.51645 2.441 1.61923 2.18478 1.82479 1.97922C2.03034 1.77367 2.28656 1.67089 2.59345 1.67089H4.59345C4.59345 1.235 4.7494 0.861055 5.06129 0.549055C5.37329 0.237055 5.74723 0.0810547 6.18312 0.0810547C6.61901 0.0810547 6.99295 0.237055 7.30495 0.549055C7.61684 0.861055 7.77279 1.235 7.77279 1.67089H9.77279C10.0797 1.67089 10.3359 1.77367 10.5415 1.97922C10.747 2.18478 10.8498 2.441 10.8498 2.74789V6.85039C10.8498 7.15717 10.747 7.41333 10.5415 7.61889C10.3359 7.82444 10.0797 7.92722 9.77279 7.92722H2.59345ZM9.31129 7.26055H9.77279C9.89245 7.26055 9.99079 7.22211 10.0678 7.14522C10.1447 7.06833 10.1831 6.97005 10.1831 6.85039V2.74789C10.1831 2.62822 10.1447 2.52989 10.0678 2.45289C9.99079 2.376 9.89245 2.33755 9.77279 2.33755H9.31129V7.26055ZM5.18312 1.67089H7.18312C7.18312 1.382 7.08868 1.14311 6.89979 0.954222C6.7109 0.765333 6.47201 0.670888 6.18312 0.670888C5.89423 0.670888 5.65534 0.765333 5.46645 0.954222C5.27757 1.14311 5.18312 1.382 5.18312 1.67089ZM3.05495 7.26055V2.33755H2.59345C2.47379 2.33755 2.37545 2.376 2.29845 2.45289C2.22156 2.52989 2.18312 2.62822 2.18312 2.74789V6.85039C2.18312 6.97005 2.22156 7.06833 2.29845 7.14522C2.37545 7.22211 2.47379 7.26055 2.59345 7.26055H3.05495ZM3.64462 2.33755V7.26055H8.72162V2.33755H3.64462Z" fill="#007FC4"/>
</svg>
