<svg width="14" height="13" viewBox="0 0 14 13" fill="none" xmlns="http://www.w3.org/2000/svg">
<path d="M9.51628 8.42723C9.08894 8.42723 8.72572 8.27768 8.42661 7.97857C8.12739 7.67945 7.97778 7.31623 7.97778 6.8889C7.97778 6.46157 8.12739 6.09829 8.42661 5.79907C8.72572 5.49995 9.08894 5.3504 9.51628 5.3504C9.94361 5.3504 10.3068 5.49995 10.6059 5.79907C10.9052 6.09829 11.0548 6.46157 11.0548 6.8889C11.0548 7.31623 10.9052 7.67945 10.6059 7.97857C10.3068 8.27768 9.94361 8.42723 9.51628 8.42723ZM9.51628 7.76057C9.7565 7.76057 9.96183 7.67534 10.1323 7.5049C10.3028 7.33434 10.3881 7.12901 10.3881 6.8889C10.3881 6.64868 10.3028 6.44334 10.1323 6.2729C9.96183 6.10234 9.7565 6.01707 9.51628 6.01707C9.27605 6.01707 9.07072 6.10234 8.90028 6.2729C8.72972 6.44334 8.64444 6.64868 8.64444 6.8889C8.64444 7.12901 8.72972 7.33434 8.90028 7.5049C9.07072 7.67534 9.27605 7.76057 9.51628 7.76057ZM5.97778 12.3632V10.8914C5.97778 10.7387 6.01422 10.5951 6.08711 10.4606C6.16 10.3261 6.26205 10.2189 6.39328 10.1389C6.70194 9.95379 7.02744 9.80029 7.36978 9.6784C7.71222 9.55662 8.06189 9.46651 8.41878 9.40807L9.51628 10.8376L10.6009 9.40807C10.9619 9.46651 11.3132 9.55662 11.6548 9.6784C11.9963 9.80029 12.3232 9.95379 12.6354 10.1389C12.7671 10.2183 12.8678 10.3245 12.9374 10.4574C13.0071 10.5903 13.0462 10.7307 13.0548 10.8786V12.3632H5.97778ZM6.62778 11.6966H9.33161L8.16244 10.1606C7.89144 10.2243 7.62794 10.3072 7.37194 10.4091C7.11605 10.511 6.868 10.629 6.62778 10.7632V11.6966ZM9.70094 11.6966H12.3881V10.7632C12.1504 10.6265 11.9037 10.51 11.6478 10.4139C11.3918 10.3177 11.1283 10.2375 10.8573 10.1734L9.70094 11.6966ZM1.93261 11.3376C1.63028 11.3376 1.37416 11.2321 1.16428 11.0212C0.954498 10.8103 0.849609 10.5568 0.849609 10.2606V1.7479C0.849609 1.45168 0.955054 1.19812 1.16594 0.987231C1.37683 0.776343 1.63039 0.670898 1.92661 0.670898H10.4393C10.7355 0.670898 10.9891 0.776343 11.1999 0.987231C11.4108 1.19812 11.5163 1.45168 11.5163 1.7479V4.2094C11.4154 4.1154 11.3128 4.03034 11.2086 3.95423C11.1043 3.87812 10.9846 3.81957 10.8496 3.77857V1.7479C10.8496 1.62823 10.8112 1.5299 10.7343 1.4529C10.6573 1.37601 10.5589 1.33757 10.4393 1.33757H1.92661C1.80694 1.33757 1.70861 1.37601 1.63161 1.4529C1.55472 1.5299 1.51628 1.62823 1.51628 1.7479V10.2606C1.51628 10.3802 1.55472 10.4786 1.63161 10.5556C1.70861 10.6325 1.80694 10.6709 1.92661 10.6709H4.15478C4.14711 10.7077 4.14133 10.7445 4.13744 10.7812C4.13355 10.8179 4.13161 10.8546 4.13161 10.8914V11.3376H1.93261ZM3.18294 3.82473H8.13161C8.29228 3.73073 8.4615 3.66234 8.63928 3.61957C8.81705 3.5769 8.99828 3.54701 9.18294 3.5299V3.15806H3.18294V3.82473ZM3.18294 6.33757H6.19578C6.21289 6.21534 6.23572 6.10079 6.26428 5.9939C6.29294 5.88712 6.32611 5.77945 6.36378 5.6709H3.18294V6.33757ZM3.18294 8.8504H5.04711C5.16078 8.75895 5.2785 8.67218 5.40028 8.59007C5.52205 8.50807 5.64661 8.43801 5.77394 8.3799V8.18373H3.18294V8.8504ZM1.51628 10.6709V1.33757V3.77473V3.50423V10.6709Z" fill="#007FC4"/>
</svg>
