<svg width="16" height="15" viewBox="0 0 16 15" fill="none" xmlns="http://www.w3.org/2000/svg">
<path d="M8.00271 14.998C6.96562 14.998 5.99056 14.8012 5.0775 14.4076C4.16458 14.014 3.37042 13.4799 2.695 12.8051C2.01958 12.1304 1.48493 11.3369 1.09104 10.4247C0.697014 9.51263 0.5 8.53798 0.5 7.50076C0.5 6.46367 0.696805 5.4886 1.09042 4.57555C1.48403 3.66263 2.01819 2.86846 2.69292 2.19305C3.36764 1.51763 4.16111 0.982977 5.07333 0.589088C5.98542 0.195061 6.96007 -0.00195312 7.99729 -0.00195312C9.03438 -0.00195312 10.0094 0.194853 10.9225 0.588464C11.8354 0.982075 12.6296 1.51624 13.305 2.19096C13.9804 2.86569 14.5151 3.65916 14.909 4.57138C15.303 5.48346 15.5 6.45812 15.5 7.49534C15.5 8.53242 15.3032 9.50749 14.9096 10.4205C14.516 11.3335 13.9818 12.1276 13.3071 12.803C12.6324 13.4785 11.8389 14.0131 10.9267 14.407C10.0146 14.801 9.03993 14.998 8.00271 14.998ZM8 14.1647C8.88514 14.1647 9.73569 13.9954 10.5517 13.6568C11.3676 13.318 12.0881 12.8371 12.7131 12.2139L8 7.49805V0.83138C6.13889 0.83138 4.5625 1.47721 3.27083 2.76888C1.97917 4.06055 1.33333 5.63694 1.33333 7.49805C1.33333 9.35916 1.97917 10.9355 3.27083 12.2272C4.5625 13.5189 6.13889 14.1647 8 14.1647Z" fill="#007FC4"/>
</svg>
