<svg width="20" height="21" viewBox="0 0 20 21" fill="none" xmlns="http://www.w3.org/2000/svg">
<path d="M2.41484 20.1621V19.1118H18.1648V20.1621H2.41484ZM2.41484 1.50436V0.454102H18.1648V1.50436H2.41484ZM10.2898 12.4081C11.0168 12.4081 11.636 12.1523 12.1476 11.6408C12.6591 11.1293 12.9148 10.51 12.9148 9.78309C12.9148 9.05614 12.6591 8.4369 12.1476 7.92538C11.636 7.41385 11.0168 7.15809 10.2898 7.15809C9.56289 7.15809 8.94366 7.41385 8.43213 7.92538C7.92061 8.4369 7.66484 9.05614 7.66484 9.78309C7.66484 10.51 7.92061 11.1293 8.43213 11.6408C8.94366 12.1523 9.56289 12.4081 10.2898 12.4081ZM2.53612 17.6581C2.05277 17.6581 1.64922 17.4962 1.32547 17.1725C1.00172 16.8487 0.839844 16.4452 0.839844 15.9618V4.65436C0.839844 4.17101 1.00172 3.76746 1.32547 3.44371C1.64922 3.11996 2.05277 2.95809 2.53612 2.95809H18.0436C18.5269 2.95809 18.9305 3.11996 19.2542 3.44371C19.578 3.76746 19.7398 4.17101 19.7398 4.65436V15.9618C19.7398 16.4452 19.578 16.8487 19.2542 17.1725C18.9305 17.4962 18.5269 17.6581 18.0436 17.6581H2.53612ZM5.10048 16.6081C5.88798 15.8972 6.71381 15.3695 7.57796 15.025C8.44228 14.6804 9.34624 14.5081 10.2898 14.5081C11.2334 14.5081 12.1374 14.6804 13.0017 15.025C13.8659 15.3695 14.6917 15.8972 15.4792 16.6081H18.0436C18.2053 16.6081 18.3534 16.5408 18.488 16.4062C18.6226 16.2717 18.6898 16.1235 18.6898 15.9618V4.65436C18.6898 4.49266 18.6226 4.34453 18.488 4.20995C18.3534 4.07538 18.2053 4.00809 18.0436 4.00809H2.53612C2.37442 4.00809 2.22628 4.07538 2.09171 4.20995C1.95713 4.34453 1.88984 4.49266 1.88984 4.65436V15.9618C1.88984 16.1235 1.95713 16.2717 2.09171 16.4062C2.22628 16.5408 2.37442 16.6081 2.53612 16.6081H5.10048ZM6.82484 16.6081H13.7548C13.2473 16.2581 12.7005 15.9956 12.1142 15.8206C11.528 15.6456 10.9198 15.5581 10.2898 15.5581C9.65984 15.5581 9.05172 15.6456 8.46547 15.8206C7.87922 15.9956 7.33234 16.2581 6.82484 16.6081ZM10.2898 11.3581C9.85777 11.3581 9.48721 11.2037 9.17816 10.8948C8.86928 10.5857 8.71484 10.2152 8.71484 9.78309C8.71484 9.35102 8.86928 8.98045 9.17816 8.6714C9.48721 8.36253 9.85777 8.20809 10.2898 8.20809C10.7219 8.20809 11.0925 8.36253 11.4015 8.6714C11.7104 8.98045 11.8648 9.35102 11.8648 9.78309C11.8648 10.2152 11.7104 10.5857 11.4015 10.8948C11.0925 11.2037 10.7219 11.3581 10.2898 11.3581Z" fill="#1C1B1F"/>
</svg>
