<svg width="42" height="43" viewBox="0 0 42 43" fill="none" xmlns="http://www.w3.org/2000/svg">
<rect y="0.922852" width="42" height="42" rx="21" fill="#F5F7FA"/>
<circle cx="21" cy="21.9229" r="18" fill="#F53B3E" fill-opacity="0.3"/>
<mask id="mask0_766_2622" style="mask-type:alpha" maskUnits="userSpaceOnUse" x="12" y="12" width="18" height="19">
<rect x="12" y="12.9229" width="18" height="18" fill="#D9D9D9"/>
</mask>
<g mask="url(#mask0_766_2622)">
<path d="M24.75 24.7858C24.1971 24.7858 23.7272 24.5923 23.3402 24.2053C22.9532 23.8183 22.7597 23.3484 22.7597 22.7955C22.7597 22.2426 22.9532 21.7727 23.3402 21.3857C23.7272 20.9987 24.1971 20.8052 24.75 20.8052C25.3029 20.8052 25.7728 20.9987 26.1598 21.3857C26.5468 21.7727 26.7403 22.2426 26.7403 22.7955C26.7403 23.3484 26.5468 23.8183 26.1598 24.2053C25.7728 24.5923 25.3029 24.7858 24.75 24.7858ZM24.75 23.6608C24.9914 23.6608 25.1959 23.5769 25.3637 23.4092C25.5314 23.2414 25.6153 23.0369 25.6153 22.7955C25.6153 22.5541 25.5314 22.3495 25.3637 22.1818C25.1959 22.0139 24.9914 21.93 24.75 21.93C24.5086 21.93 24.3041 22.0139 24.1363 22.1818C23.9686 22.3495 23.8847 22.5541 23.8847 22.7955C23.8847 23.0369 23.9686 23.2414 24.1363 23.4092C24.3041 23.5769 24.5086 23.6608 24.75 23.6608ZM20.5097 29.6248V27.7093C20.5097 27.4922 20.5614 27.288 20.6649 27.0967C20.7684 26.9055 20.9133 26.753 21.0996 26.6392C21.4732 26.4164 21.8672 26.2316 22.2817 26.085C22.6962 25.9384 23.1195 25.8299 23.5515 25.7595L24.75 27.2666L25.9414 25.7595C26.3757 25.8299 26.7984 25.9384 27.2092 26.085C27.62 26.2316 28.0133 26.4164 28.389 26.6392C28.5755 26.7526 28.7211 26.9045 28.8259 27.095C28.9307 27.2854 28.9856 27.4878 28.9903 27.7022V29.6248H20.5097ZM21.6159 28.4998H24.2899L23.1261 27.017C22.8611 27.0842 22.6034 27.1714 22.3532 27.2786C22.1029 27.386 21.8572 27.5055 21.6159 27.6373V28.4998ZM25.2101 28.4998H27.8653V27.6373C27.6317 27.4978 27.3898 27.3776 27.1395 27.2767C26.8894 27.1757 26.6318 27.0916 26.3668 27.0244L25.2101 28.4998ZM15.9842 28.2979C15.6079 28.2979 15.2873 28.1651 15.0223 27.8996C14.7574 27.6341 14.625 27.3149 14.625 26.942V16.9037C14.625 16.5308 14.7578 16.2116 15.0233 15.9461C15.2888 15.6806 15.6079 15.5479 15.9808 15.5479H26.0192C26.3921 15.5479 26.7113 15.6806 26.9767 15.9461C27.2422 16.2116 27.375 16.5308 27.375 16.9037V20.1632C27.2183 19.9853 27.0512 19.8187 26.8738 19.6635C26.6964 19.5082 26.4885 19.4003 26.25 19.3397V16.9037C26.25 16.8363 26.2284 16.781 26.1851 16.7377C26.1419 16.6945 26.0866 16.6729 26.0192 16.6729H15.9808C15.9134 16.6729 15.8581 16.6945 15.8149 16.7377C15.7716 16.781 15.75 16.8363 15.75 16.9037V26.942C15.75 27.0094 15.7716 27.0647 15.8149 27.108C15.8581 27.1512 15.9134 27.1729 15.9808 27.1729H18.7903C18.7673 27.2622 18.75 27.3517 18.7384 27.4412C18.7269 27.5305 18.7211 27.6199 18.7211 27.7093V28.2979H15.9842ZM17.4375 19.5718H22.8461C23.099 19.3939 23.3723 19.2617 23.6661 19.1752C23.9598 19.0887 24.2586 19.0407 24.5625 19.031V18.447H17.4375V19.5718ZM17.4375 22.4854H21.0071C21.0168 22.2854 21.0437 22.0928 21.0879 21.9077C21.1322 21.7227 21.1899 21.5402 21.261 21.3604H17.4375V22.4854ZM17.4375 25.3987H19.7798C19.9125 25.2911 20.0522 25.1924 20.1988 25.1025C20.3454 25.0125 20.4952 24.9324 20.6481 24.8623V24.2739H17.4375V25.3987ZM15.75 27.1729V16.6729V19.3282V19.0166V27.1729Z" fill="#F64F59"/>
</g>
</svg>
