<svg width="14" height="16" viewBox="0 0 14 16" fill="none" xmlns="http://www.w3.org/2000/svg">
<path d="M5.08398 13.2961L4.49419 12.7063L6.41086 10.7896L4.49419 8.87296L5.08398 8.28316L7.00065 10.1998L8.91732 8.28316L9.50711 8.87296L7.59044 10.7896L9.50711 12.7063L8.91732 13.2961L7.00065 11.3794L5.08398 13.2961ZM1.68023 15.998C1.29662 15.998 0.976346 15.8695 0.719401 15.6125C0.462457 15.3556 0.333984 15.0353 0.333984 14.6517V4.01087C0.333984 3.62726 0.462457 3.30698 0.719401 3.05004C0.976346 2.79309 1.29662 2.66462 1.68023 2.66462H3.1544V0.805664H4.0519V2.66462H10.0136V0.805664H10.8469V2.66462H12.3211C12.7047 2.66462 13.025 2.79309 13.2819 3.05004C13.5388 3.30698 13.6673 3.62726 13.6673 4.01087V14.6517C13.6673 15.0353 13.5388 15.3556 13.2819 15.6125C13.025 15.8695 12.7047 15.998 12.3211 15.998H1.68023ZM1.68023 15.1646H12.3211C12.4494 15.1646 12.567 15.1112 12.6738 15.0044C12.7806 14.8976 12.834 14.78 12.834 14.6517V7.34421H1.16732V14.6517C1.16732 14.78 1.22072 14.8976 1.32753 15.0044C1.43433 15.1112 1.5519 15.1646 1.68023 15.1646Z" fill="#007FC4"/>
</svg>
