<svg width="10" height="10" viewBox="0 0 10 10" fill="none" xmlns="http://www.w3.org/2000/svg">
<path d="M3.07687 6.84573L5.98075 5.90336L6.92312 2.99948L4.01925 3.94186L3.07687 6.84573ZM4.99775 5.48036C4.84217 5.48036 4.71071 5.4259 4.60337 5.31698C4.49596 5.20807 4.44225 5.07586 4.44225 4.92036C4.44225 4.76477 4.49671 4.63332 4.60563 4.52598C4.71454 4.41857 4.84675 4.36486 5.00225 4.36486C5.15783 4.36486 5.28929 4.41932 5.39663 4.52823C5.50404 4.63715 5.55775 4.76936 5.55775 4.92486C5.55775 5.08044 5.50329 5.2119 5.39437 5.31923C5.28546 5.42665 5.15325 5.48036 4.99775 5.48036ZM5.00163 9.42261C4.37937 9.42261 3.79433 9.30453 3.2465 9.06836C2.69875 8.83219 2.22225 8.51169 1.817 8.10686C1.41175 7.70202 1.09096 7.22594 0.854625 6.67861C0.618208 6.13136 0.5 5.54657 0.5 4.92423C0.5 4.30198 0.618083 3.71694 0.85425 3.16911C1.09042 2.62136 1.41092 2.14486 1.81575 1.73961C2.22058 1.33436 2.69667 1.01357 3.244 0.777232C3.79125 0.540816 4.37604 0.422607 4.99837 0.422607C5.62063 0.422607 6.20567 0.540691 6.7535 0.776858C7.30125 1.01302 7.77775 1.33352 8.183 1.73836C8.58825 2.14319 8.90904 2.61927 9.14538 3.16661C9.38179 3.71386 9.5 4.29865 9.5 4.92098C9.5 5.54323 9.38192 6.12827 9.14575 6.67611C8.90958 7.22386 8.58908 7.70036 8.18425 8.10561C7.77942 8.51086 7.30333 8.83165 6.756 9.06798C6.20875 9.3044 5.62396 9.42261 5.00163 9.42261ZM5 8.92261C6.11475 8.92261 7.06008 8.53461 7.836 7.75861C8.612 6.98269 9 6.03736 9 4.92261C9 3.80786 8.612 2.86252 7.836 2.08661C7.06008 1.31061 6.11475 0.922607 5 0.922607C3.88525 0.922607 2.93992 1.31061 2.164 2.08661C1.388 2.86252 1 3.80786 1 4.92261C1 6.03736 1.388 6.98269 2.164 7.75861C2.93992 8.53461 3.88525 8.92261 5 8.92261Z" fill="#666666"/>
</svg>
