<svg width="20" height="21" viewBox="0 0 20 21" fill="none" xmlns="http://www.w3.org/2000/svg">
<mask id="mask0_311_5438" style="mask-type:alpha" maskUnits="userSpaceOnUse" x="0" y="0" width="20" height="21">
<rect y="0.498047" width="20" height="20" fill="#D9D9D9"/>
</mask>
<g mask="url(#mask0_311_5438)">
<path d="M3.33398 9.66488V3.83154H9.16732V9.66488H3.33398ZM3.33398 17.1649V11.3315H9.16732V17.1649H3.33398ZM10.834 9.66488V3.83154H16.6673V9.66488H10.834ZM10.834 17.1649V11.3315H16.6673V17.1649H10.834ZM4.16732 8.83154H8.33398V4.66488H4.16732V8.83154ZM11.6673 8.83154H15.834V4.66488H11.6673V8.83154ZM11.6673 16.3315H15.834V12.1649H11.6673V16.3315ZM4.16732 16.3315H8.33398V12.1649H4.16732V16.3315Z" fill="#004576"/>
<path d="M11.6673 16.3315H15.834V12.1649H11.6673V16.3315Z" fill="#004576"/>
<path d="M4.16732 16.3315H8.33398V12.1649H4.16732V16.3315Z" fill="#004576"/>
<path d="M4.16732 8.83154H8.33398V4.66488H4.16732V8.83154Z" fill="#004576"/>
<path d="M11.6673 8.83154H15.834V4.66488H11.6673V8.83154Z" fill="#004576"/>
</g>
</svg>
