<svg width="26" height="13" viewBox="0 0 26 13" fill="none" xmlns="http://www.w3.org/2000/svg">
<path d="M11.154 11.2693C11.154 11.6375 10.8555 11.936 10.4873 11.936H6.436C4.932 11.936 3.65 11.4061 2.59 10.3463C1.53 9.28652 1 8.00485 1 6.5013C1 4.99774 1.53 3.71563 2.59 2.65497C3.65 1.5943 4.932 1.06396 6.436 1.06396H10.4873C10.8555 1.06396 11.154 1.36244 11.154 1.73063C11.154 2.09882 10.8555 2.3973 10.4873 2.3973H6.436C5.30778 2.3973 4.34189 2.79908 3.53833 3.60263C2.735 4.40597 2.33333 5.37174 2.33333 6.49997C2.33333 7.62819 2.735 8.59397 3.53833 9.3973C4.34189 10.2009 5.30778 10.6026 6.436 10.6026H10.4873C10.8555 10.6026 11.154 10.9011 11.154 11.2693ZM9 7.16663C8.63181 7.16663 8.33333 6.86816 8.33333 6.49997C8.33333 6.13178 8.63181 5.8333 9 5.8333H17C17.3682 5.8333 17.6667 6.13178 17.6667 6.49997C17.6667 6.86816 17.3682 7.16663 17 7.16663H9ZM15.5127 11.936C15.1445 11.936 14.846 11.6375 14.846 11.2693C14.846 10.9011 15.1445 10.6026 15.5127 10.6026H19.564C20.6922 10.6026 21.6581 10.2009 22.4617 9.3973C23.265 8.59397 23.6667 7.62819 23.6667 6.49997C23.6667 5.37174 23.265 4.40597 22.4617 3.60263C21.6581 2.79908 20.6922 2.3973 19.564 2.3973H15.5127C15.1445 2.3973 14.846 2.09882 14.846 1.73063C14.846 1.36244 15.1445 1.06396 15.5127 1.06396H19.564C21.068 1.06396 22.35 1.59385 23.41 2.65363C24.47 3.71341 25 4.99508 25 6.49863C25 8.00219 24.47 9.2843 23.41 10.345C22.35 11.4056 21.068 11.936 19.564 11.936H15.5127Z" fill="#007FC4" stroke="#007FC4" stroke-width="1.1"/>
</svg>
