<svg width="13" height="17" viewBox="0 0 13 17" fill="none" xmlns="http://www.w3.org/2000/svg">
<path d="M6.69185 8.59588C7.10643 8.59588 7.46088 8.44824 7.75518 8.15296C8.04963 7.85769 8.19685 7.50275 8.19685 7.08817C8.19685 6.67359 8.04921 6.31907 7.75393 6.02463C7.45865 5.73032 7.10365 5.58317 6.68893 5.58317C6.27435 5.58317 5.91991 5.73081 5.6256 6.02609C5.33115 6.32137 5.18393 6.67636 5.18393 7.09109C5.18393 7.50567 5.33157 7.86012 5.62685 8.15442C5.92213 8.44873 6.27713 8.59588 6.69185 8.59588ZM6.69039 16.6328C4.59317 14.8155 3.02053 13.1244 1.97247 11.5592C0.924418 9.99393 0.400391 8.55692 0.400391 7.24817C0.400391 5.32511 1.0224 3.76824 2.26643 2.57755C3.5106 1.38685 4.98525 0.791504 6.69039 0.791504C8.39553 0.791504 9.87018 1.38685 11.1143 2.57755C12.3584 3.76824 12.9804 5.32511 12.9804 7.24817C12.9804 8.55692 12.4564 9.99393 11.4083 11.5592C10.3603 13.1244 8.78761 14.8155 6.69039 16.6328Z" fill="#268E2D"/>
</svg>
