<svg width="14" height="14" viewBox="0 0 14 14" fill="none" xmlns="http://www.w3.org/2000/svg">
<path d="M6.2403 5.79085C5.99029 6.04095 5.84987 6.38012 5.84994 6.73376C5.85 7.08739 5.99054 7.42651 6.24064 7.67652C6.49073 7.92653 6.82991 8.06695 7.18354 8.06689C7.53717 8.06683 7.87629 7.92629 8.1263 7.67619M10.3043 9.84826C9.36909 10.4334 8.2867 10.7402 7.18359 10.7329C4.78359 10.7329 2.78359 9.3996 1.18359 6.73293C2.03159 5.3196 2.99159 4.28093 4.06359 3.61693M5.97026 2.85293C6.36962 2.77208 6.77614 2.73188 7.18359 2.73293C9.58359 2.73293 11.5836 4.06626 13.1836 6.73293C12.7396 7.47293 12.2643 8.11093 11.7583 8.64626M1.18359 0.73291L13.1836 12.7329" stroke="#ACB5BB" stroke-width="1.3" stroke-linecap="round" stroke-linejoin="round"/>
</svg>
