<svg width="14" height="14" viewBox="0 0 14 14" fill="none" xmlns="http://www.w3.org/2000/svg">
<path d="M6.2403 6.21566C5.99029 6.46576 5.84987 6.80493 5.84994 7.15856C5.85 7.51219 5.99054 7.85131 6.24064 8.10132C6.49073 8.35134 6.82991 8.49175 7.18354 8.49169C7.53717 8.49163 7.87629 8.35109 8.1263 8.10099M10.3043 10.2731C9.36909 10.8582 8.2867 11.165 7.18359 11.1577C4.78359 11.1577 2.78359 9.8244 1.18359 7.15774C2.03159 5.7444 2.99159 4.70574 4.06359 4.04174M5.97026 3.27773C6.36962 3.19689 6.77614 3.15668 7.18359 3.15773C9.58359 3.15773 11.5836 4.49107 13.1836 7.15774C12.7396 7.89774 12.2643 8.53574 11.7583 9.07107M1.18359 1.15771L13.1836 13.1577" stroke="#ACB5BB" stroke-width="1.3" stroke-linecap="round" stroke-linejoin="round"/>
</svg>
