<svg width="12" height="13" viewBox="0 0 12 13" fill="none" xmlns="http://www.w3.org/2000/svg">
<path d="M6.18244 7.00387C6.08789 7.00387 6.00878 6.97192 5.94511 6.90803C5.88144 6.84415 5.84961 6.76498 5.84961 6.67053V1.2347C5.84961 1.14026 5.88161 1.06109 5.94561 0.997201C6.00961 0.933312 6.08889 0.901367 6.18344 0.901367C6.278 0.901367 6.35711 0.933312 6.42078 0.997201C6.48444 1.06109 6.51628 1.14026 6.51628 1.2347V6.67053C6.51628 6.76498 6.48428 6.84415 6.42028 6.90803C6.35628 6.97192 6.277 7.00387 6.18244 7.00387ZM6.18361 12.3372C5.44383 12.3372 4.75066 12.1981 4.10411 11.9199C3.45755 11.6416 2.89261 11.2609 2.40928 10.7775C1.92594 10.2942 1.54516 9.72942 1.26694 9.0832C0.98872 8.43698 0.849609 7.74387 0.849609 7.00387C0.849609 6.35176 0.967109 5.72331 1.20211 5.11853C1.43722 4.51387 1.77017 3.97053 2.20094 3.48853C2.2605 3.40987 2.33628 3.37331 2.42828 3.37887C2.52028 3.38442 2.60378 3.4247 2.67878 3.4997C2.74222 3.56315 2.76839 3.63676 2.75728 3.72053C2.74616 3.80431 2.71072 3.88553 2.65094 3.9642C2.2825 4.3812 2.00128 4.85209 1.80728 5.37687C1.61328 5.90176 1.51628 6.44409 1.51628 7.00387C1.51628 8.30387 1.96905 9.40664 2.87461 10.3122C3.78017 11.2178 4.88294 11.6705 6.18294 11.6705C7.48294 11.6705 8.58572 11.2178 9.49128 10.3122C10.3968 9.40664 10.8496 8.30387 10.8496 7.00387C10.8496 6.44542 10.7532 5.9022 10.5604 5.3742C10.3678 4.84609 10.0847 4.37348 9.71111 3.95637C9.65133 3.88037 9.61589 3.79881 9.60478 3.7117C9.59367 3.6247 9.61928 3.55031 9.68161 3.48853C9.75517 3.41498 9.83722 3.37759 9.92778 3.37637C10.0184 3.37503 10.0949 3.41242 10.1573 3.48853C10.5906 3.97053 10.9254 4.51298 11.1618 5.11587C11.3981 5.71876 11.5163 6.34809 11.5163 7.00387C11.5163 7.74387 11.3772 8.43698 11.0989 9.0832C10.8207 9.72942 10.4399 10.2942 9.95661 10.7775C9.47328 11.2609 8.90855 11.6416 8.26244 11.9199C7.61644 12.1981 6.9235 12.3372 6.18361 12.3372Z" fill="#007FC4"/>
</svg>
