<svg width="12" height="11" viewBox="0 0 12 11" fill="none" xmlns="http://www.w3.org/2000/svg">
<path d="M11.4336 10.7155L9.63868 8.92057H1.87597C1.60744 8.92057 1.38325 8.83064 1.20339 8.65078C1.02352 8.47092 0.933594 8.24673 0.933594 7.9782V1.69628C0.933594 1.42775 1.02352 1.20356 1.20339 1.0237C1.38325 0.843837 1.60744 0.753906 1.87597 0.753906H10.4912C10.7597 0.753906 10.9839 0.843837 11.1638 1.0237C11.3437 1.20356 11.4336 1.42775 11.4336 1.69628V10.7155ZM1.87597 8.33724H9.88776L10.8503 9.29639V1.69628C10.8503 1.60645 10.8129 1.52415 10.7381 1.44939C10.6634 1.37462 10.5811 1.33724 10.4912 1.33724H1.87597C1.78614 1.33724 1.70384 1.37462 1.62907 1.44939C1.55431 1.52415 1.51693 1.60645 1.51693 1.69628V7.9782C1.51693 8.06803 1.55431 8.15033 1.62907 8.22509C1.70384 8.29986 1.78614 8.33724 1.87597 8.33724Z" fill="#007FC4"/>
</svg>
