<svg width="43" height="43" viewBox="0 0 43 43" fill="none" xmlns="http://www.w3.org/2000/svg">
<rect x="0.679688" y="0.922852" width="42" height="42" rx="21" fill="#F5F7FA"/>
<circle cx="21.6797" cy="21.9229" r="18" fill="#991FEB" fill-opacity="0.3"/>
<mask id="mask0_766_2612" style="mask-type:alpha" maskUnits="userSpaceOnUse" x="12" y="12" width="19" height="19">
<rect x="12.6797" y="12.9229" width="18" height="18" fill="#D9D9D9"/>
</mask>
<g mask="url(#mask0_766_2612)">
<path d="M14.5547 28.7017V16.1537C14.5547 15.7748 14.6859 15.4541 14.9484 15.1916C15.2109 14.9291 15.5316 14.7979 15.9105 14.7979H27.4489C27.8278 14.7979 28.1484 14.9291 28.4109 15.1916C28.6734 15.4541 28.8047 15.7748 28.8047 16.1537V24.692C28.8047 25.0709 28.6734 25.3916 28.4109 25.6541C28.1484 25.9166 27.8278 26.0479 27.4489 26.0479H17.2086L14.5547 28.7017ZM16.7297 24.9229H27.4489C27.5066 24.9229 27.5595 24.8988 27.6075 24.8507C27.6556 24.8027 27.6797 24.7498 27.6797 24.692V16.1537C27.6797 16.0959 27.6556 16.043 27.6075 15.995C27.5595 15.9469 27.5066 15.9229 27.4489 15.9229H15.9105C15.8527 15.9229 15.7999 15.9469 15.7519 15.995C15.7038 16.043 15.6797 16.0959 15.6797 16.1537V25.9614L16.7297 24.9229Z" fill="#991FEB"/>
</g>
</svg>
