<svg width="12" height="13" viewBox="0 0 12 13" fill="none" xmlns="http://www.w3.org/2000/svg">
<path d="M4.99832 12.9861C4.70154 12.9861 4.44826 12.8807 4.23848 12.6698C4.0286 12.4589 3.92365 12.2054 3.92365 11.9093H6.07765C6.07765 12.2076 5.97193 12.4617 5.76048 12.6715C5.54915 12.8812 5.2951 12.9861 4.99832 12.9861ZM8.84682 7.66563V5.66563H6.84682V4.99896H8.84682V2.99896H9.51348V4.99896H11.5135V5.66563H9.51348V7.66563H8.84682ZM0.333984 11.2426V10.576H1.41098V5.29396C1.41098 4.42296 1.6866 3.65691 2.23782 2.9958C2.78915 2.33469 3.48787 1.92296 4.33398 1.76063V1.39646C4.33398 1.21124 4.39865 1.05385 4.52798 0.924297C4.65732 0.79463 4.81437 0.729797 4.99915 0.729797C5.18393 0.729797 5.34148 0.79463 5.47182 0.924297C5.60215 1.05385 5.66732 1.21124 5.66732 1.39646V1.76063C5.87421 1.80507 6.07399 1.8608 6.26665 1.9278C6.45943 1.99491 6.64382 2.08446 6.81982 2.19646C6.73015 2.27513 6.64193 2.35324 6.55515 2.4308C6.46849 2.50835 6.39265 2.5918 6.32765 2.68113C6.12621 2.57769 5.91471 2.50013 5.69315 2.44846C5.47171 2.39669 5.24087 2.3708 5.00065 2.3708C4.19043 2.3708 3.50071 2.65541 2.93148 3.22463C2.36226 3.79385 2.07765 4.48363 2.07765 5.29396V10.576H7.92365V9.04263C8.02965 9.08796 8.1361 9.12602 8.24298 9.1568C8.34976 9.18746 8.46554 9.21224 8.59032 9.23113V10.576H9.66732V11.2426H0.333984Z" fill="#007FC4"/>
</svg>
