<svg width="16" height="15" viewBox="0 0 16 15" fill="none" xmlns="http://www.w3.org/2000/svg">
<path d="M2.16667 15C1.70833 15 1.31597 14.8368 0.989583 14.5104C0.663194 14.184 0.5 13.7917 0.5 13.3333V1.66667C0.5 1.20833 0.663194 0.815972 0.989583 0.489583C1.31597 0.163194 1.70833 0 2.16667 0H8V1.66667H2.16667V13.3333H13.8333V7.5H15.5V13.3333C15.5 13.7917 15.3368 14.184 15.0104 14.5104C14.684 14.8368 14.2917 15 13.8333 15H2.16667ZM6.08333 10.5833L4.91667 9.41667L12.6667 1.66667H9.66667V0H15.5V5.83333H13.8333V2.83333L6.08333 10.5833Z" fill="#268E2D"/>
</svg>
