<svg width="20" height="21" viewBox="0 0 20 21" fill="none" xmlns="http://www.w3.org/2000/svg">
<path d="M0.951172 20.7514V19.7014H19.8512V20.7514H0.951172ZM3.05117 18.4091V13.4822C2.44672 12.2814 1.99041 11.1247 1.68223 10.0122C1.37388 8.89958 1.21971 7.84582 1.21971 6.85094C1.21971 6.02582 1.32506 5.16771 1.53576 4.27661C1.74646 3.38533 2.06916 2.35344 2.50386 1.18094C2.56318 1.00192 2.66285 0.853519 2.80285 0.735744C2.94285 0.617969 3.11111 0.559082 3.30763 0.559082C3.54056 0.559082 3.73507 0.652007 3.89117 0.837857C4.04727 1.02353 4.11053 1.23554 4.08096 1.47389L3.81242 3.64031C3.70742 4.56116 3.81881 5.46512 4.14658 6.35219C4.47436 7.23927 4.94922 8.03115 5.57117 8.72782C6.19312 9.4245 6.9234 9.98721 7.762 10.416C8.6006 10.8447 9.48032 11.0591 10.4012 11.0591C11.4916 11.0591 12.482 11.1348 13.3724 11.2861C14.263 11.4377 15.0213 11.6608 15.6472 11.9555C16.3135 12.2773 16.8307 12.6917 17.1989 13.1985C17.5671 13.7053 17.7512 14.3396 17.7512 15.1016V18.4091H3.05117ZM4.10117 17.3591H16.7012V15.1016C16.7012 14.6142 16.576 14.1885 16.3255 13.8245C16.0751 13.4603 15.7036 13.1618 15.211 12.9289C14.6415 12.6597 13.9449 12.4558 13.1212 12.317C12.2973 12.1784 11.3906 12.1091 10.4012 12.1091C9.32702 12.1091 8.30222 11.8594 7.32677 11.3599C6.3515 10.8605 5.50485 10.2059 4.78682 9.39615C4.06862 8.58642 3.52437 7.66767 3.15407 6.6399C2.78395 5.61212 2.66215 4.56518 2.78867 3.49908C2.61367 4.02408 2.4868 4.57061 2.40805 5.13866C2.3293 5.70671 2.28992 6.27747 2.28992 6.85094C2.28992 7.74484 2.44576 8.707 2.75743 9.7374C3.06911 10.768 3.51702 11.918 4.10117 13.1874V17.3591ZM10.4012 9.52451C9.5288 9.52451 8.78575 9.21756 8.17202 8.60366C7.55812 7.98976 7.25117 7.24671 7.25117 6.37451C7.25117 5.50213 7.55812 4.75899 8.17202 4.14509C8.78575 3.53137 9.5288 3.22451 10.4012 3.22451C11.2735 3.22451 12.0166 3.53137 12.6303 4.14509C13.2442 4.75899 13.5512 5.50213 13.5512 6.37451C13.5512 7.24671 13.2442 7.98976 12.6303 8.60366C12.0166 9.21756 11.2735 9.52451 10.4012 9.52451ZM10.4012 8.47451C10.9787 8.47451 11.473 8.26888 11.8843 7.85763C12.2955 7.44638 12.5012 6.95201 12.5012 6.37451C12.5012 5.79701 12.2955 5.30263 11.8843 4.89138C11.473 4.48013 10.9787 4.27451 10.4012 4.27451C9.82367 4.27451 9.3293 4.48013 8.91805 4.89138C8.5068 5.30263 8.30117 5.79701 8.30117 6.37451C8.30117 6.95201 8.5068 7.44638 8.91805 7.85763C9.3293 8.26888 9.82367 8.47451 10.4012 8.47451ZM6.7666 18.4091V17.983C6.7666 16.999 7.11292 16.1644 7.80557 15.4791C8.49805 14.7939 9.3363 14.4514 10.3203 14.4514H13.8743V15.5014H10.3203C9.6177 15.5014 9.02471 15.7427 8.54136 16.2253C8.05818 16.7078 7.8166 17.2937 7.8166 17.983V18.4091H6.7666Z" fill="#1C1B1F"/>
</svg>
