<svg width="10" height="10" viewBox="0 0 10 10" fill="none" xmlns="http://www.w3.org/2000/svg">
<path d="M5.18424 4.59375C4.63424 4.59375 4.16341 4.39792 3.77174 4.00625C3.38008 3.61458 3.18424 3.14375 3.18424 2.59375C3.18424 2.04375 3.38008 1.57292 3.77174 1.18125C4.16341 0.789583 4.63424 0.59375 5.18424 0.59375C5.73424 0.59375 6.20508 0.789583 6.59675 1.18125C6.98841 1.57292 7.18424 2.04375 7.18424 2.59375C7.18424 3.14375 6.98841 3.61458 6.59675 4.00625C6.20508 4.39792 5.73424 4.59375 5.18424 4.59375ZM0.517578 9.41442V8.31692C0.517578 8.04169 0.597689 7.78419 0.757911 7.54442C0.918245 7.30475 1.13386 7.11864 1.40474 6.98608C2.03386 6.68442 2.66336 6.45814 3.29324 6.30725C3.92313 6.15647 4.55347 6.08108 5.18424 6.08108C5.81502 6.08108 6.44536 6.15647 7.07525 6.30725C7.70513 6.45814 8.33463 6.68442 8.96374 6.98608C9.23463 7.11864 9.45024 7.30475 9.61058 7.54442C9.7708 7.78419 9.85091 8.04169 9.85091 8.31692V9.41442H0.517578ZM1.18424 8.74775H9.18424V8.31692C9.18424 8.16903 9.13658 8.03014 9.04124 7.90025C8.94602 7.77036 8.81419 7.66053 8.64574 7.57075C8.09708 7.30497 7.53136 7.10136 6.94858 6.95992C6.3658 6.81847 5.77769 6.74775 5.18424 6.74775C4.5908 6.74775 4.00269 6.81847 3.41991 6.95992C2.83713 7.10136 2.27141 7.30497 1.72274 7.57075C1.5543 7.66053 1.42247 7.77036 1.32724 7.90025C1.23191 8.03014 1.18424 8.16903 1.18424 8.31692V8.74775ZM5.18424 3.92708C5.55091 3.92708 5.8648 3.79653 6.12591 3.53542C6.38702 3.27431 6.51758 2.96042 6.51758 2.59375C6.51758 2.22708 6.38702 1.91319 6.12591 1.65208C5.8648 1.39097 5.55091 1.26042 5.18424 1.26042C4.81758 1.26042 4.50369 1.39097 4.24258 1.65208C3.98147 1.91319 3.85091 2.22708 3.85091 2.59375C3.85091 2.96042 3.98147 3.27431 4.24258 3.53542C4.50369 3.79653 4.81758 3.92708 5.18424 3.92708Z" fill="#007FC4"/>
</svg>
