<svg width="12" height="12" viewBox="0 0 12 12" fill="none" xmlns="http://www.w3.org/2000/svg">
<path d="M6 9.31725C6.13075 9.31725 6.24038 9.27306 6.32888 9.18469C6.41738 9.09619 6.46163 8.98656 6.46163 8.85581C6.46163 8.72506 6.41738 8.61544 6.32888 8.52694C6.24038 8.43844 6.13075 8.39419 6 8.39419C5.86925 8.39419 5.75962 8.43844 5.67112 8.52694C5.58262 8.61544 5.53837 8.72506 5.53837 8.85581C5.53837 8.98656 5.58262 9.09619 5.67112 9.18469C5.75962 9.27306 5.86925 9.31725 6 9.31725ZM5.625 7.09613H6.375V2.53838H5.625V7.09613ZM3.50475 12L0 8.502V3.50475L3.498 0H8.49525L12 3.498V8.49525L8.502 12H3.50475ZM3.825 11.25H8.175L11.25 8.175V3.825L8.175 0.75H3.825L0.75 3.825V8.175L3.825 11.25Z" fill="#ACADBC"/>
</svg>
