<svg width="12" height="14" viewBox="0 0 12 14" fill="none" xmlns="http://www.w3.org/2000/svg">
<path d="M13.6389 13.8339L8.32866 8.61601C7.90462 8.97073 7.41697 9.24531 6.86572 9.43976C6.31446 9.6342 5.76052 9.73143 5.2039 9.73143C3.84555 9.73143 2.69591 9.26941 1.75496 8.34538C0.814153 7.42136 0.34375 6.2924 0.34375 4.95851C0.34375 3.62448 0.813941 2.49455 1.75432 1.56872C2.69471 0.643022 3.84365 0.180176 5.20114 0.180176C6.55878 0.180176 7.70871 0.642398 8.65093 1.56684C9.59301 2.49143 10.064 3.62108 10.064 4.9558C10.064 5.53483 9.95966 6.09518 9.75089 6.63684C9.54212 7.17851 9.26812 7.64163 8.92889 8.02622L14.2392 13.2443L13.6389 13.8339ZM5.2039 8.89809C6.32916 8.89809 7.27916 8.51747 8.05388 7.75622C8.8286 6.99511 9.21597 6.06163 9.21597 4.9558C9.21597 3.84997 8.8286 2.9165 8.05388 2.15538C7.27916 1.39413 6.32916 1.01351 5.2039 1.01351C4.07849 1.01351 3.1285 1.39413 2.35392 2.15538C1.57919 2.9165 1.19183 3.84997 1.19183 4.9558C1.19183 6.06163 1.57919 6.99511 2.35392 7.75622C3.1285 8.51747 4.07849 8.89809 5.2039 8.89809Z" fill="#007FC4"/>
</svg>
