<svg width="14" height="14" viewBox="0 0 14 14" fill="none" xmlns="http://www.w3.org/2000/svg">
<path d="M1.68023 5.76901C1.29662 5.76901 0.976345 5.64054 0.719401 5.38359C0.462457 5.12665 0.333984 4.80637 0.333984 4.42276V2.11505C0.333984 1.73158 0.462457 1.4113 0.719401 1.15422C0.976345 0.897271 1.29662 0.768799 1.68023 0.768799H12.3211C12.7047 0.768799 13.025 0.897271 13.2819 1.15422C13.5388 1.4113 13.6673 1.73158 13.6673 2.11505V4.42276C13.6673 4.80637 13.5388 5.12665 13.2819 5.38359C13.025 5.64054 12.7047 5.76901 12.3211 5.76901H1.68023ZM1.68023 4.93567H12.3211C12.4494 4.93567 12.567 4.8822 12.6738 4.77526C12.7806 4.66845 12.834 4.55095 12.834 4.42276V2.11505C12.834 1.98685 12.7806 1.86935 12.6738 1.76255C12.567 1.65574 12.4494 1.60234 12.3211 1.60234H1.68023C1.5519 1.60234 1.43433 1.65574 1.32753 1.76255C1.22072 1.86935 1.16732 1.98685 1.16732 2.11505V4.42276C1.16732 4.55095 1.22072 4.66845 1.32753 4.77526C1.43433 4.8822 1.5519 4.93567 1.68023 4.93567ZM1.68023 13.0767C1.29662 13.0767 0.976345 12.9482 0.719401 12.6911C0.462457 12.4341 0.333984 12.1139 0.333984 11.7305V9.42276C0.333984 9.03915 0.462457 8.71887 0.719401 8.46192C0.976345 8.20498 1.29662 8.07651 1.68023 8.07651H12.3211C12.7047 8.07651 13.025 8.20498 13.2819 8.46192C13.5388 8.71887 13.6673 9.03915 13.6673 9.42276V11.7305C13.6673 12.1139 13.5388 12.4341 13.2819 12.6911C13.025 12.9482 12.7047 13.0767 12.3211 13.0767H1.68023ZM1.68023 12.2432H12.3211C12.4494 12.2432 12.567 12.1898 12.6738 12.083C12.7806 11.9762 12.834 11.8587 12.834 11.7305V9.42276C12.834 9.29456 12.7806 9.17706 12.6738 9.07026C12.567 8.96331 12.4494 8.90984 12.3211 8.90984H1.68023C1.5519 8.90984 1.43433 8.96331 1.32753 9.07026C1.22072 9.17706 1.16732 9.29456 1.16732 9.42276V11.7305C1.16732 11.8587 1.22072 11.9762 1.32753 12.083C1.43433 12.1898 1.5519 12.2432 1.68023 12.2432Z" fill="#004576"/>
<path d="M1.68023 12.2432H12.3211C12.4494 12.2432 12.567 12.1898 12.6738 12.083C12.7806 11.9762 12.834 11.8587 12.834 11.7305V9.42276C12.834 9.29456 12.7806 9.17706 12.6738 9.07026C12.567 8.96331 12.4494 8.90984 12.3211 8.90984H1.68023C1.5519 8.90984 1.43433 8.96331 1.32753 9.07026C1.22072 9.17706 1.16732 9.29456 1.16732 9.42276V11.7305C1.16732 11.8587 1.22072 11.9762 1.32753 12.083C1.43433 12.1898 1.5519 12.2432 1.68023 12.2432Z" fill="#004576"/>
<path d="M1.68023 4.93567H12.3211C12.4494 4.93567 12.567 4.8822 12.6738 4.77526C12.7806 4.66845 12.834 4.55095 12.834 4.42276V2.11505C12.834 1.98685 12.7806 1.86935 12.6738 1.76255C12.567 1.65574 12.4494 1.60234 12.3211 1.60234H1.68023C1.5519 1.60234 1.43433 1.65574 1.32753 1.76255C1.22072 1.86935 1.16732 1.98685 1.16732 2.11505V4.42276C1.16732 4.55095 1.22072 4.66845 1.32753 4.77526C1.43433 4.8822 1.5519 4.93567 1.68023 4.93567Z" fill="#004576"/>
</svg>
