<svg width="14" height="13" viewBox="0 0 14 13" fill="none" xmlns="http://www.w3.org/2000/svg">
<path d="M1.68023 5.34445C1.29662 5.34445 0.976345 5.21597 0.719401 4.95903C0.462457 4.70209 0.333984 4.38181 0.333984 3.9982V1.69049C0.333984 1.30702 0.462457 0.986738 0.719401 0.729655C0.976345 0.472711 1.29662 0.344238 1.68023 0.344238H12.3211C12.7047 0.344238 13.025 0.472711 13.2819 0.729655C13.5388 0.986738 13.6673 1.30702 13.6673 1.69049V3.9982C13.6673 4.38181 13.5388 4.70209 13.2819 4.95903C13.025 5.21597 12.7047 5.34445 12.3211 5.34445H1.68023ZM1.68023 4.51111H12.3211C12.4494 4.51111 12.567 4.45764 12.6738 4.3507C12.7806 4.24389 12.834 4.12639 12.834 3.9982V1.69049C12.834 1.56229 12.7806 1.44479 12.6738 1.33799C12.567 1.23118 12.4494 1.17778 12.3211 1.17778H1.68023C1.5519 1.17778 1.43433 1.23118 1.32753 1.33799C1.22072 1.44479 1.16732 1.56229 1.16732 1.69049V3.9982C1.16732 4.12639 1.22072 4.24389 1.32753 4.3507C1.43433 4.45764 1.5519 4.51111 1.68023 4.51111ZM1.68023 12.6522C1.29662 12.6522 0.976345 12.5236 0.719401 12.2665C0.462457 12.0096 0.333984 11.6894 0.333984 11.3059V8.9982C0.333984 8.61459 0.462457 8.29431 0.719401 8.03736C0.976345 7.78042 1.29662 7.65195 1.68023 7.65195H12.3211C12.7047 7.65195 13.025 7.78042 13.2819 8.03736C13.5388 8.29431 13.6673 8.61459 13.6673 8.9982V11.3059C13.6673 11.6894 13.5388 12.0096 13.2819 12.2665C13.025 12.5236 12.7047 12.6522 12.3211 12.6522H1.68023ZM1.68023 11.8186H12.3211C12.4494 11.8186 12.567 11.7652 12.6738 11.6584C12.7806 11.5516 12.834 11.4341 12.834 11.3059V8.9982C12.834 8.87 12.7806 8.7525 12.6738 8.6457C12.567 8.53875 12.4494 8.48528 12.3211 8.48528H1.68023C1.5519 8.48528 1.43433 8.53875 1.32753 8.6457C1.22072 8.7525 1.16732 8.87 1.16732 8.9982V11.3059C1.16732 11.4341 1.22072 11.5516 1.32753 11.6584C1.43433 11.7652 1.5519 11.8186 1.68023 11.8186Z" fill="#004576"/>
</svg>
