<svg width="20" height="21" viewBox="0 0 20 21" fill="none" xmlns="http://www.w3.org/2000/svg">
<mask id="mask0_311_5332" style="mask-type:alpha" maskUnits="userSpaceOnUse" x="0" y="0" width="20" height="21">
<rect y="0.424805" width="20" height="20" fill="#D9D9D9"/>
</mask>
<g mask="url(#mask0_311_5332)">
<path d="M5.31966 16.7438V11.13H7.05383C7.12966 11.13 7.20813 11.1377 7.28924 11.1531C7.37049 11.1687 7.44904 11.1904 7.52487 11.2181L12.5426 13.0594C12.7904 13.1502 12.9947 13.2993 13.1555 13.5065C13.3163 13.7138 13.3967 13.9467 13.3967 14.2052C13.3967 14.358 13.3467 14.482 13.2467 14.5771C13.1469 14.6721 13.0238 14.7196 12.8774 14.7196H11.8759C11.5927 14.7196 11.3163 14.7028 11.0465 14.6692C10.7768 14.6356 10.5126 14.5728 10.254 14.4808L8.7605 13.944L8.52174 14.5642L10.158 15.1267C10.4208 15.2154 10.6921 15.2766 10.972 15.3102C11.252 15.3438 11.5356 15.3606 11.823 15.3606H16.1211C16.5014 15.3606 16.8262 15.4856 17.0955 15.7356C17.3647 15.9856 17.4992 16.2987 17.4992 16.6748L11.6707 18.5979L5.31966 16.7438ZM1.98633 17.9248V11.13H4.48633V17.9248H1.98633ZM13.0761 10.7452L9.93841 7.73897C9.57188 7.38633 9.26605 6.99126 9.02091 6.55376C8.77563 6.11626 8.65299 5.64168 8.65299 5.13001C8.65299 4.51571 8.86695 3.9946 9.29487 3.56668C9.72279 3.13876 10.2439 2.9248 10.8582 2.9248C11.3133 2.9248 11.7274 3.04793 12.1003 3.29418C12.4731 3.54043 12.7983 3.83932 13.0761 4.19085C13.3539 3.83932 13.6792 3.54043 14.0522 3.29418C14.4249 3.04793 14.8389 2.9248 15.294 2.9248C15.9083 2.9248 16.4295 3.13876 16.8574 3.56668C17.2853 3.9946 17.4992 4.51571 17.4992 5.13001C17.4992 5.64168 17.3774 6.11626 17.1338 6.55376C16.8902 6.99126 16.5852 7.38633 16.2188 7.73897L13.0761 10.7452Z" fill="#007FC4"/>
</g>
</svg>
