<svg width="17" height="16" viewBox="0 0 17 16" fill="none" xmlns="http://www.w3.org/2000/svg">
<path d="M4.31966 13.817V8.20326H6.05383C6.12966 8.20326 6.20813 8.21096 6.28924 8.22638C6.37049 8.24194 6.44904 8.2636 6.52487 8.29138L11.5426 10.1326C11.7904 10.2235 11.9947 10.3725 12.1555 10.5797C12.3163 10.7871 12.3967 11.02 12.3967 11.2785C12.3967 11.4312 12.3467 11.5552 12.2467 11.6503C12.1469 11.7453 12.0238 11.7928 11.8774 11.7928H10.8759C10.5927 11.7928 10.3163 11.776 10.0465 11.7424C9.77681 11.7088 9.51265 11.646 9.25404 11.5541L7.7605 11.0172L7.52174 11.6374L9.15799 12.1999C9.42077 12.2887 9.69209 12.3499 9.97195 12.3835C10.252 12.4171 10.5356 12.4339 10.823 12.4339H15.1211C15.5014 12.4339 15.8262 12.5589 16.0955 12.8089C16.3647 13.0589 16.4992 13.3719 16.4992 13.748L10.6707 15.6712L4.31966 13.817ZM0.986328 14.998V8.20326H3.48633V14.998H0.986328ZM12.0761 7.81846L8.93841 4.81221C8.57188 4.45958 8.26605 4.06451 8.02091 3.62701C7.77563 3.18951 7.65299 2.71492 7.65299 2.20325C7.65299 1.58895 7.86695 1.06784 8.29487 0.639922C8.72279 0.212005 9.2439 -0.00195312 9.8582 -0.00195312C10.3133 -0.00195312 10.7274 0.121171 11.1003 0.367422C11.4731 0.613672 11.7983 0.912561 12.0761 1.26409C12.3539 0.912561 12.6792 0.613672 13.0522 0.367422C13.4249 0.121171 13.8389 -0.00195312 14.294 -0.00195312C14.9083 -0.00195312 15.4295 0.212005 15.8574 0.639922C16.2853 1.06784 16.4992 1.58895 16.4992 2.20325C16.4992 2.71492 16.3774 3.18951 16.1338 3.62701C15.8902 4.06451 15.5852 4.45958 15.2188 4.81221L12.0761 7.81846Z" fill="#007FC4"/>
</svg>
