<svg width="10" height="10" viewBox="0 0 10 10" fill="none" xmlns="http://www.w3.org/2000/svg">
<path d="M1.30775 8.92285C1.07758 8.92285 0.885417 8.84577 0.73125 8.6916C0.577083 8.53744 0.5 8.34527 0.5 8.1151V3.2306C0.5 3.00043 0.577083 2.80827 0.73125 2.6541C0.885417 2.49993 1.07758 2.42285 1.30775 2.42285H3.5V1.73048C3.5 1.50039 3.57708 1.30827 3.73125 1.1541C3.88542 0.999935 4.07758 0.922852 4.30775 0.922852H5.69225C5.92242 0.922852 6.11458 0.999935 6.26875 1.1541C6.42292 1.30827 6.5 1.50039 6.5 1.73048V2.42285H8.69225C8.92242 2.42285 9.11458 2.49993 9.26875 2.6541C9.42292 2.80827 9.5 3.00043 9.5 3.2306V5.3296C9.4205 5.27893 9.34071 5.23485 9.26062 5.19735C9.18046 5.15985 9.09358 5.12477 9 5.0921V3.2306C9 3.14085 8.97117 3.0671 8.9135 3.00935C8.85575 2.95168 8.782 2.92285 8.69225 2.92285H1.30775C1.218 2.92285 1.14425 2.95168 1.0865 3.00935C1.02883 3.0671 1 3.14085 1 3.2306V8.1151C1 8.20485 1.02883 8.2786 1.0865 8.33635C1.14425 8.39402 1.218 8.42285 1.30775 8.42285H5.0375C5.05608 8.51452 5.07596 8.60043 5.09713 8.6806C5.11829 8.76068 5.14392 8.84143 5.174 8.92285H1.30775ZM4 2.42285H6V1.73048C6 1.64081 5.97117 1.5671 5.9135 1.50935C5.85575 1.45168 5.782 1.42285 5.69225 1.42285H4.30775C4.218 1.42285 4.14425 1.45168 4.0865 1.50935C4.02883 1.5671 4 1.64081 4 1.73048V2.42285ZM8 9.92285C7.44292 9.92285 6.97033 9.72877 6.58225 9.3406C6.19408 8.95252 6 8.47993 6 7.92285C6 7.36577 6.19408 6.89319 6.58225 6.5051C6.97033 6.11693 7.44292 5.92285 8 5.92285C8.55708 5.92285 9.02967 6.11693 9.41775 6.5051C9.80592 6.89319 10 7.36577 10 7.92285C10 8.47993 9.80592 8.95252 9.41775 9.3406C9.02967 9.72877 8.55708 9.92285 8 9.92285ZM8.19225 7.8421V6.4806H7.80775V8.0036L8.825 9.02098L9.09812 8.74785L8.19225 7.8421Z" fill="#666666"/>
</svg>
